<svg width="32" height="34" viewBox="0 0 32 34" fill="none" xmlns="http://www.w3.org/2000/svg">
<g filter="url(#filter0_d_2618_44742)">
<path d="M0 2C0 0.895431 0.895431 0 2 0H30C31.1046 0 32 0.895431 32 2V30C32 31.1046 31.1046 32 30 32H2C0.895431 32 0 31.1046 0 30V2Z" fill="white"/>
<g clip-path="url(#clip0_2618_44742)">
<path d="M22.4198 15.1985C22.3947 14.9623 22.3579 14.6892 22.2832 14.3912C22.2086 14.0931 22.0843 13.7699 21.9228 13.4222C21.7489 13.0868 21.5378 12.7263 21.2519 12.3909C21.1399 12.2544 21.0157 12.1302 20.8914 11.9937C21.0903 11.2108 20.6552 10.5278 20.6552 10.5278C19.8974 10.4782 19.4255 10.764 19.2517 10.8882C19.2266 10.876 19.1898 10.8632 19.1648 10.8509C19.0405 10.8013 18.904 10.7517 18.7675 10.7016C18.631 10.6642 18.4939 10.6147 18.3574 10.5896C18.2209 10.5523 18.0716 10.5278 17.9228 10.5027C17.8978 10.5027 17.8733 10.4904 17.8482 10.4904C17.525 9.44683 16.5812 9 16.5812 9C15.5002 9.69592 15.2891 10.6275 15.2891 10.6275C15.2891 10.6275 15.2891 10.6526 15.2768 10.6771C15.215 10.6893 15.1648 10.7144 15.103 10.7267C15.0283 10.7517 14.9414 10.7763 14.8668 10.8136C14.7921 10.8509 14.7052 10.8754 14.6305 10.9128C14.4689 10.9874 14.3202 11.0621 14.1586 11.149C14.0091 11.2326 13.864 11.324 13.724 11.4226C13.6989 11.4103 13.6867 11.3975 13.6867 11.3975C12.233 10.8387 10.9415 11.5095 10.9415 11.5095C10.8295 13.0623 11.5254 14.0312 11.6619 14.2051C11.6246 14.3042 11.6001 14.3912 11.5628 14.4909C11.452 14.8435 11.373 15.2052 11.3265 15.5718C11.3143 15.6214 11.3143 15.6838 11.3014 15.7334C9.95975 16.392 9.5625 17.7582 9.5625 17.7582C10.6808 19.0503 11.9973 19.1249 11.9973 19.1249C12.1618 19.4233 12.3532 19.706 12.569 19.9696C12.6559 20.0816 12.7551 20.1807 12.8548 20.2928C12.4448 21.4606 12.9167 22.4418 12.9167 22.4418C14.1714 22.4913 14.991 21.8952 15.1648 21.7587L15.5376 21.8707C15.9226 21.9698 16.3204 22.0323 16.7054 22.0445H17.2147C17.7986 22.8892 18.8422 23.0012 18.8422 23.0012C19.5748 22.2183 19.625 21.4606 19.625 21.2867V21.2121C19.7743 21.1001 19.9231 20.9887 20.0724 20.8644C20.3705 20.6037 20.619 20.2928 20.8424 19.9702C20.8675 19.9451 20.8798 19.9083 20.9043 19.8832C21.7367 19.9328 22.3206 19.3617 22.3206 19.3617C22.1841 18.492 21.6871 18.0697 21.5879 17.995L21.5757 17.9827L21.5634 17.9705L21.5512 17.9583C21.5512 17.9087 21.5634 17.8591 21.5634 17.7967C21.5757 17.6975 21.5757 17.6106 21.5757 17.5108V17.1503C21.5757 17.1252 21.5757 17.1007 21.5634 17.0757L21.5383 16.9263C21.5261 16.8272 21.501 16.7403 21.4888 16.6405C21.4022 16.2731 21.2597 15.9211 21.0664 15.5969C20.8719 15.283 20.6334 14.9986 20.3583 14.7522C20.0916 14.5165 19.7899 14.3237 19.464 14.1806C19.1541 14.0364 18.8226 13.944 18.4828 13.907C18.3212 13.8819 18.1474 13.8819 17.9858 13.8819H17.7373C17.6504 13.8942 17.5635 13.907 17.4888 13.9193C17.1534 13.9811 16.8431 14.1053 16.5695 14.2669C16.2959 14.4285 16.0603 14.6397 15.8613 14.8753C15.6685 15.0995 15.5171 15.356 15.4139 15.6331C15.3148 15.8938 15.2523 16.1797 15.2401 16.4404V16.7385C15.2401 16.7758 15.2401 16.8003 15.2523 16.8377C15.291 17.2202 15.4327 17.5852 15.6624 17.8935C15.8118 18.0924 15.9728 18.2412 16.1594 18.3654C16.3455 18.4897 16.5322 18.5766 16.7311 18.639C16.93 18.7014 17.1161 18.7259 17.2899 18.7137H17.5501C17.5752 18.7137 17.5997 18.7014 17.6119 18.7014C17.637 18.7014 17.6493 18.6892 17.6737 18.6892C17.7111 18.6769 17.7607 18.6641 17.798 18.6518C17.8727 18.6267 17.9473 18.59 18.0214 18.5649C18.0961 18.5276 18.1579 18.4902 18.2075 18.4529C18.2197 18.4407 18.2448 18.4278 18.2571 18.4156C18.272 18.4043 18.2845 18.3902 18.2938 18.374C18.3032 18.3578 18.3092 18.34 18.3116 18.3214C18.3139 18.3029 18.3125 18.2841 18.3075 18.2661C18.3024 18.2481 18.2938 18.2313 18.2822 18.2167C18.2581 18.1931 18.2277 18.177 18.1947 18.1704C18.1616 18.1637 18.1274 18.1669 18.0961 18.1793C18.0838 18.1916 18.071 18.1916 18.0465 18.2044C17.9949 18.2306 17.9408 18.2513 17.8849 18.2663C17.8231 18.2785 17.7607 18.3036 17.6988 18.3158C17.6615 18.3158 17.637 18.3281 17.5997 18.3281H17.3891C17.3891 18.3281 17.3768 18.3281 17.3891 18.3281H17.3389C17.3261 18.3281 17.3016 18.3281 17.2893 18.3158C17.1528 18.2907 17.0035 18.254 16.867 18.1916C16.7305 18.1292 16.5934 18.0423 16.482 17.9308C16.3578 17.8188 16.2586 17.6946 16.1717 17.5458C16.0848 17.3971 16.0352 17.2355 16.0101 17.0739C15.9978 16.987 15.985 16.9001 15.9978 16.8132V16.7385C15.9978 16.7508 15.9978 16.7385 15.9978 16.7385V16.6761C15.9978 16.6265 16.0101 16.5892 16.0229 16.5396C16.0885 16.1555 16.2758 15.8028 16.5573 15.5333C16.6319 15.4587 16.7066 15.3968 16.7935 15.3472C16.8804 15.2854 16.9673 15.2352 17.0542 15.1979C17.1412 15.1606 17.2403 15.1233 17.3401 15.0987C17.4392 15.0737 17.539 15.0492 17.6382 15.0492C17.6877 15.0492 17.7373 15.0369 17.7875 15.0369H17.8867C17.8989 15.0369 17.8867 15.0369 17.8867 15.0369H17.9363C18.2677 15.0646 18.5895 15.162 18.8807 15.3228C19.2779 15.5462 19.6133 15.8816 19.8123 16.2917C19.9114 16.4906 19.9861 16.714 20.0234 16.9503C20.0357 17.0121 20.0357 17.0623 20.0485 17.1241V17.4473C20.0485 17.5091 20.0363 17.5715 20.0363 17.6333C20.024 17.6952 20.024 17.7576 20.0112 17.8194L19.9738 18.0055C19.9616 18.0673 19.8992 18.2418 19.8618 18.366C19.8245 18.4903 19.6507 18.8257 19.5013 19.0246C19.1996 19.4374 18.7977 19.7667 18.3335 19.9812C18.0972 20.0804 17.8616 20.1673 17.6131 20.2047C17.4904 20.2295 17.3655 20.242 17.2403 20.242H17.0542C17.0665 20.242 17.0542 20.242 17.0542 20.242H17.042C16.9802 20.242 16.9055 20.242 16.8431 20.2297C16.5695 20.2047 16.3088 20.1551 16.048 20.0804C15.7873 20.0057 15.5388 19.9066 15.3025 19.7823C14.8292 19.5276 14.4112 19.1814 14.0728 18.7638C13.9113 18.5527 13.7625 18.3293 13.6383 18.093C13.514 17.8568 13.4271 17.6082 13.3524 17.3603C13.2798 17.1097 13.2381 16.8511 13.2282 16.5903V16.2053C13.2282 16.0811 13.2404 15.9446 13.2655 15.8081C13.2778 15.6716 13.3028 15.5473 13.3273 15.4108C13.3518 15.2743 13.3892 15.1501 13.4265 15.0136C13.4638 14.8771 13.5881 14.5043 13.7001 14.2681C13.9235 13.7962 14.2093 13.3738 14.5448 13.0384C14.6317 12.9515 14.7186 12.8768 14.8183 12.8022C14.8557 12.7648 14.9426 12.6902 15.0418 12.6283C15.1409 12.5665 15.2407 12.5041 15.3521 12.4545C15.4017 12.4294 15.4513 12.4049 15.5137 12.3798C15.5388 12.3676 15.5633 12.3547 15.6006 12.3425C15.6257 12.3303 15.6502 12.3174 15.6875 12.3052C15.7995 12.2556 15.9109 12.2183 16.0229 12.1809C16.048 12.1687 16.0848 12.1687 16.1098 12.1558C16.1349 12.143 16.1717 12.1436 16.1968 12.1308C16.2218 12.1179 16.3088 12.1057 16.3706 12.0812C16.3957 12.0689 16.4324 12.0689 16.4575 12.0561C16.4826 12.0561 16.5193 12.0438 16.5444 12.0438C16.5695 12.0438 16.6063 12.0316 16.6313 12.0316L16.7305 12.0065C16.7556 12.0065 16.7923 11.9942 16.8174 11.9942C16.8548 11.9942 16.8793 11.982 16.9166 11.982C16.9417 11.982 16.9913 11.9697 17.0158 11.9697C17.0403 11.9697 17.0531 11.9698 17.0776 11.9575H17.1645C17.2018 11.9575 17.2263 11.9575 17.2637 11.9453H17.3133C17.3133 11.9453 17.3255 11.9453 17.3133 11.9453H17.7729C17.9963 11.9575 18.2203 11.9826 18.4315 12.0199C18.8465 12.0921 19.2484 12.226 19.6238 12.4172C19.9729 12.5855 20.2986 12.7985 20.5928 13.0507C20.605 13.0629 20.6301 13.0757 20.6423 13.1002C20.6546 13.1125 20.6797 13.1253 20.6919 13.1498C20.7292 13.1749 20.7538 13.2117 20.7911 13.2368C20.8284 13.2618 20.8529 13.2986 20.8903 13.3237C20.9153 13.361 20.9521 13.3855 20.9772 13.4228C21.3086 13.7631 21.5853 14.1528 21.7973 14.5778C21.8096 14.5901 21.8096 14.6029 21.8224 14.6274C21.8347 14.6397 21.8347 14.6525 21.8475 14.677C21.8603 14.7015 21.8726 14.7388 21.8971 14.7639C21.9093 14.789 21.9222 14.8257 21.9344 14.8508C21.9467 14.8759 21.9595 14.9127 21.9718 14.9377C22.0213 15.0497 22.0587 15.1612 22.096 15.2732C22.1578 15.447 22.1952 15.5963 22.2325 15.7206C22.2394 15.7452 22.254 15.7669 22.2741 15.7825C22.2943 15.7982 22.319 15.8069 22.3445 15.8075C22.4063 15.8075 22.4437 15.7579 22.4437 15.6955C22.4314 15.5462 22.4314 15.3852 22.4186 15.1985H22.4198Z" fill="black" fill-opacity="0.85"/>
</g>
<path d="M0.5 2C0.5 1.17157 1.17157 0.5 2 0.5H30C30.8284 0.5 31.5 1.17157 31.5 2V30C31.5 30.8284 30.8284 31.5 30 31.5H2C1.17157 31.5 0.5 30.8284 0.5 30V2Z" stroke="#D9D9D9"/>
</g>
<defs>
<filter id="filter0_d_2618_44742" x="0" y="0" width="32" height="34" filterUnits="userSpaceOnUse" color-interpolation-filters="sRGB">
<feFlood flood-opacity="0" result="BackgroundImageFix"/>
<feColorMatrix in="SourceAlpha" type="matrix" values="0 0 0 0 0 0 0 0 0 0 0 0 0 0 0 0 0 0 127 0" result="hardAlpha"/>
<feOffset dy="2"/>
<feColorMatrix type="matrix" values="0 0 0 0 0 0 0 0 0 0 0 0 0 0 0 0 0 0 0.016 0"/>
<feBlend mode="normal" in2="BackgroundImageFix" result="effect1_dropShadow_2618_44742"/>
<feBlend mode="normal" in="SourceGraphic" in2="effect1_dropShadow_2618_44742" result="shape"/>
</filter>
<clipPath id="clip0_2618_44742">
<rect width="14" height="14" fill="white" transform="translate(9 9)"/>
</clipPath>
</defs>
</svg>
