
<svg width="481px" height="228px" viewBox="0 0 481 228" version="1.1" xmlns="http://www.w3.org/2000/svg" xmlns:xlink="http://www.w3.org/1999/xlink">
    <g id="Projects" stroke="none" stroke-width="1" fill="none" fill-rule="evenodd">
        <g id="WechatLogin-Copy" transform="translate(-736.000000, -640.000000)">
            <g id="Group-2" transform="translate(687.000000, 224.000000)">
                <g id="Group-4" transform="translate(16.000000, 404.000000)">
                    <g id="A-Human/Standing" transform="translate(430.000000, 119.500000) scale(-1, 1) translate(-430.000000, -119.500000) translate(346.000000, 0.000000)">
                        <g id="Head/Front/Wavy" transform="translate(45.920000, 0.000000)">
                            <g id="Head" stroke-width="1" transform="translate(30.176471, 17.288462)" fill="#B28B67">
                                <path d="M4.61715305,19.2348784 C2.04214478,16.2184596 0.299325326,12.5217969 0.590551481,8.37958005 C1.42965512,-3.55529994 18.0771201,-0.929778401 21.3153967,5.09392413 C24.5536732,11.1176267 24.1688818,26.3972477 19.9836978,27.4738513 C18.3146522,27.9031994 14.7590889,26.8514686 11.1403549,24.6747091 L13.4117647,40.7115385 L0,40.7115385 L4.61715305,19.2348784 Z"></path>
                            </g>
                            <path d="M52.7580243,25.087026 C52.6251743,24.306229 52.3004971,23.4391624 52.038521,22.7004551 C51.7007667,21.7481641 51.1896318,20.8895534 50.6271409,20.0803483 C49.5681512,18.5568536 48.2977619,17.1811003 46.8951288,16.0392631 C44.3330458,13.9535908 41.0716381,12.7505668 37.8644443,13.1412503 C36.2451288,13.3384923 34.6731855,13.954921 33.3352454,14.9809403 C32.1264313,15.9079585 30.9636904,17.2725955 29.3984156,17.3706464 C27.6952678,17.4772483 26.1340634,15.9770312 24.7681502,15.050488 C23.2280771,14.0059417 21.5897088,13.2448119 19.7897381,12.9489489 C16.7743714,12.4534687 13.9416519,13.470177 11.8635101,15.939122 C9.65208536,18.5664496 8.04454798,22.4194138 9.49680497,25.9006016 C9.76674862,26.5477187 10.1140293,27.0932694 10.6124335,27.5454248 C11.0695277,27.960051 11.7676399,28.4011851 11.9529717,29.0636939 C12.1498219,29.7679124 11.5617829,30.6764036 11.3337555,31.3118344 C11.0070864,32.2222258 10.7388748,33.1778422 10.8342255,34.1673774 C10.9908915,35.7924384 12.0142005,37.3437712 13.0947546,38.4118802 C14.1943614,39.4988013 15.547717,40.1220707 16.9932189,40.4093827 C17.9584168,40.6012091 18.9448327,40.7070509 19.9257925,40.6350329 C20.4127649,40.5993089 20.8424923,40.4642988 21.3143092,40.3569369 C21.7731354,40.2525203 22.0295689,40.3741338 22.4188524,40.6252468 C24.2272237,41.7919767 26.1716494,42.243372 28.2597505,42.0698827 C30.0220487,41.9233764 32.0532512,41.4971589 33.4908722,40.2921397 C35.0874109,38.9538206 35.0556273,37.108335 34.6799406,35.1365804 C35.0779711,35.3334423 36.1791368,35.4553409 35.5211221,34.6706485 C35.260445,34.3598689 34.7679299,34.2334098 34.4334665,34.0506094 C34.0440098,33.8377857 33.6485775,33.5627301 33.3461574,33.2155614 C32.1250456,31.8137753 33.3583685,28.9609875 34.8931588,28.4908751 C37.1734335,27.7924523 37.6839622,31.0107458 39.3117648,31.8432285 C40.2476907,32.3218919 41.2267452,31.667649 41.9279752,30.9996296 C42.8672786,30.1047249 43.507453,28.9191828 44.0601576,27.7127384 C44.5154331,26.7192128 44.9390983,25.7117206 45.4031208,24.7231354 C45.6198032,24.261479 46.3699642,22.9564136 45.9932382,22.4344255 C47.6264969,22.1093943 49.445607,22.7867247 50.8522239,23.6749787 C51.4335943,24.0421946 51.8768319,24.4470347 52.1869597,25.0952919 C52.2533847,25.2341974 52.3980128,25.6471134 52.5796207,25.6640252 C52.9177215,25.6955688 52.7913667,25.2832228 52.7580243,25.087026" id="hair" fill="#191847"></path>
                        </g>
                        <g id="Bottom/Standing/Skirt" transform="translate(0.000000, 104.913146)">
                            <path d="M54.5483821,54.9949872 C67.982417,58.7569952 79.5728963,60.6379993 89.3198199,60.6379993 C99.0667436,60.6379993 108.120137,57.7412864 116.48,51.9478605 C103.333575,48.0865017 92.5069082,46.1558223 84,46.1558223 C75.4930918,46.1558223 65.6758858,49.1022106 54.5483821,54.9949872 Z" id="Skirt-Shadow" fill="#1F28CF"></path>
                            <path d="M100.949428,66.0605015 C100.819892,65.8655331 100.710498,65.6534466 100.623729,65.4237067 C98.8280365,60.6691943 70.0654556,9.37749582 67.2,0 L99.5826089,0 C101.761255,7.1298425 111.56713,51.8730033 112.947139,60.7999233 C117.301323,74.881173 126.266152,120.4852 127.410586,123.644507 C128.614511,126.968045 121.840423,130.430313 120.035288,126.344435 C117.163014,119.843113 110.319243,101.854074 107.271996,90.8700916 C104.415208,80.5726319 102.08902,71.3084651 100.949428,66.0605015 Z" id="Leg" fill="#997659"></path>
                            <path d="M74.4559547,72.322769 C61.3061755,75.6502741 13.2070561,81.6658145 9.90628385,82.6093367 C6.51081904,83.5799268 3.5336461,76.5727463 7.730624,75.0548722 C14.4087245,72.6396784 32.8099139,67.0592695 43.9666216,64.7820149 C52.9404017,62.9503292 61.1290861,61.455676 66.6267532,60.5804236 C66.1610036,45.119 64.0319432,8.0139544 65.427425,1.42108547e-14 L94.08,1.42108547e-14 C92.7418268,7.68484341 81.4296629,63.7580488 79.3271359,69.3708182 C78.6598968,71.3746145 76.6689945,72.2601445 74.4559547,72.322769 L74.4559547,72.322769 Z" id="Leg" fill="#B28B67"></path>
                            <g id="Accessories/Shoe/Flat-Sneaker" transform="translate(13.720000, 88.025105) rotate(80.000000) translate(-13.720000, -88.025105) translate(-3.360000, 76.811715)" fill="#E4E4E4">
                                <path d="M1.15420541,14.9122966 C0.756319837,16.0914465 0.557377049,17.0067207 0.557377049,17.658119 C0.557377049,18.6499264 0.724821032,20.0972201 1.059709,22 C2.22570754,22 12.7047328,22 32.4967846,22 C33.3137228,19.334979 32.8421387,17.8962199 31.0820324,17.6837227 C29.3219261,17.4712256 27.8597759,17.2793576 26.6955818,17.108119 L12.492833,10.8602641 C11.9873007,10.6378781 11.3972063,10.8674135 11.1748203,11.3729458 C11.1723112,11.3786497 11.1698554,11.3843768 11.1674533,11.3901266 L10.4024466,13.2212823 C8.77304855,13.9714587 7.44899343,14.3465469 6.43028129,14.3465469 C5.75847057,14.3465469 4.87889774,14.1292345 3.79156282,13.6946096 L3.7915663,13.6946009 C2.76589395,13.2846235 1.6020699,13.7837429 1.19209253,14.8094153 C1.17852574,14.8433564 1.16589195,14.877663 1.15420541,14.9122966 Z" id="shoe"></path>
                            </g>
                            <g id="Accessories/Shoe/Flat-Sneaker" transform="translate(116.480000, 111.573222)" fill="#E4E4E4">
                                <path d="M1.15420541,14.9122966 C0.756319837,16.0914465 0.557377049,17.0067207 0.557377049,17.658119 C0.557377049,18.6499264 0.724821032,20.0972201 1.059709,22 C2.22570754,22 12.7047328,22 32.4967846,22 C33.3137228,19.334979 32.8421387,17.8962199 31.0820324,17.6837227 C29.3219261,17.4712256 27.8597759,17.2793576 26.6955818,17.108119 L12.492833,10.8602641 C11.9873007,10.6378781 11.3972063,10.8674135 11.1748203,11.3729458 C11.1723112,11.3786497 11.1698554,11.3843768 11.1674533,11.3901266 L10.4024466,13.2212823 C8.77304855,13.9714587 7.44899343,14.3465469 6.43028129,14.3465469 C5.75847057,14.3465469 4.87889774,14.1292345 3.79156282,13.6946096 L3.7915663,13.6946009 C2.76589395,13.2846235 1.6020699,13.7837429 1.19209253,14.8094153 C1.17852574,14.8433564 1.16589195,14.877663 1.15420541,14.9122966 Z" id="shoe"></path>
                            </g>
                            <path d="M65.52,2.22044605e-15 C78.1462301,-3.61673236 90.0928968,-3.61673236 101.36,2.22044605e-15 C105.28,17.9063629 114.805006,25.0134123 116.48,52.4668454 C97.44,61.9386822 73.92,45.711637 54.32,54.9485844 C48.72,42.0284033 56.56,10.9131608 65.52,2.22044605e-15 Z" id="Skirt" fill="#796DDA"></path>
                        </g>
                        <g id="Body/Lab-Coat" transform="translate(12.320000, 46.004695)">
                            <path d="M106.333276,49.7542902 L123.195334,64.1239337 C127.925254,65.7704053 131.839771,67.680401 134.938887,69.8539207 C135.654249,70.6074544 136.479077,72.0896312 133.327435,71.621964 C130.175794,71.1542969 126.839815,70.8048591 126.327023,71.860533 C125.81423,72.916207 127.641364,74.3502121 126.655587,75.7539354 C125.998403,76.689751 123.385231,74.0437186 118.816071,67.8158383 L101.724779,59.2416959 L106.333276,49.7542902 Z M29.9781293,43.5362112 L39.871818,44.9805033 C29.2518202,68.1420012 23.5583134,80.3911427 22.7912978,81.7279278 C21.0655126,84.7356945 23.0951518,89.9745102 23.8885883,92.747814 C19.8787799,93.9117424 21.159377,87.6842783 16.0892296,89.2375271 C11.4614341,90.6552605 7.64251366,93.869191 3.05910821,90.0474729 C2.49560545,89.5776151 2.02092344,88.0411908 3.81199452,87.1459865 C8.27420577,84.9157062 14.8257635,80.8345781 15.8441814,79.3304654 C17.2329761,77.2793389 21.944292,65.3479208 29.9781293,43.5362112 Z" id="Skin" fill="#B28B67"></path>
                            <path d="M68.6812698,5.16091825 L74.6108579,2.59646787 C84.7153059,22.6744251 98.8315344,41.721208 120.962033,56.9163024 L116.631774,66.2156857 C97.5495721,57.0603441 79.64553,50.2178337 71.2662903,34.7078376 C68.4540008,29.5022819 69.0563922,11.646587 68.6812698,5.16091825 Z" id="Coat-Back" fill="#C5CFD6" transform="translate(94.821651, 34.406077) rotate(5.000000) translate(-94.821651, -34.406077) "></path>
                            <path d="M50.2734375,61.7647059 C67.83469,63.6363636 81.657322,63.6363636 91.7413337,61.7647059 C92.9906751,61.53282 93.187775,59.430218 92.6083944,58.0032161 C83.5859314,35.7810817 77.3989186,16.3910203 77.3989186,0.956026312 C75.7434102,1.79498802 72.8461144,1.92071692 68.7070312,1.33321301 C57.583308,17.2394706 52.4701285,35.4900812 50.2734375,61.7647059 Z" id="Shirt" fill="#323337"></path>
                            <path d="M65.9416551,2.84217094e-14 L70.5774404,2.84217094e-14 C71.6568357,6.3813447 75.0613213,92.7945013 85.5713079,121.062174 L28.7035177,121.062174 C29.9363952,95.1666335 39.6617599,64.0597653 49.5136434,38.0292648 C40.8021652,46.042493 33.2093958,59.6203176 26.7353351,78.7627387 L16.0833782,76.0141873 C24.0034574,41.7086293 40.2871486,16.493916 64.9344518,0.370047435 C64.9878232,0.246108597 65.0409449,0.122758099 65.0938138,2.84217094e-14 L65.5040568,2.84217094e-14 C65.655054,-0.0974161001 65.8063618,-0.194494536 65.9579802,-0.291235307 L65.9416551,2.83661983e-14 Z" id="Coat-Front" fill="#DDE3E9"></path>
                        </g>
                    </g>
                    <g id="A-Human/Sitting" transform="translate(0.000000, 27.000000)">
                        <g id="Head/Front/Short-2" transform="translate(49.200000, 0.000000)">
                            <g id="Head" stroke-width="1" transform="translate(32.558824, 18.480769)" fill="#B28B67">
                                <path d="M4.98166513,20.5614217 C2.20336674,17.3369741 0.322956273,13.385369 0.637173966,8.95748213 C1.54252263,-3.80049303 19.5042611,-0.99390105 22.9981911,5.44522924 C26.4921211,11.8843595 26.0769514,28.2177475 21.5613582,29.3685997 C19.7605458,29.827558 15.9242801,28.703294 12.0198566,26.3764132 L14.4705882,43.5192308 L0,43.5192308 L4.98166513,20.5614217 Z"></path>
                            </g>
                            <path d="M36.4285834,41.9140985 C34.6123822,33.9250043 29.4383212,28.4791064 30.2285244,24.9083229 C30.7553266,22.5278006 32.1594122,21.0474374 34.4407814,20.4672332 C35.6206839,15.7477024 39.4261116,13.740302 45.8570646,14.445032 C55.503494,15.502127 61.3911375,19.4630869 58.8485552,28.1789272 C56.5113242,28.1789272 53.6897869,27.3431844 49.7881872,28.775081 C48.5502253,29.2294161 47.6647987,30.6383489 47.1319074,33.0018796 L45.3687899,33.0018796 C43.6576101,30.1970149 41.9703758,29.1663036 40.3070871,29.9097459 C38.6437985,30.6531881 38.2657059,32.4590122 39.1728095,35.3272183 L38.3042958,41.9140985 L36.4285834,41.9140985 Z" id="Hair" fill="#191847"></path>
                        </g>
                        <g id="Bottom/Sitting/Skinny-Jeans-1" transform="translate(0.000000, 112.305949)">
                            <g id="Objects/Seat/Cube" transform="translate(6.000000, 25.305439)" stroke-width="1">
                                <g id="Seat" transform="translate(32.952586, 0.000000)">
                                    <polygon id="Seat-Stuff" fill="#C5CFD6" points="16.5497723 0 62.8359044 0 68.9008621 75 0 75"></polygon>
                                    <polygon id="Seat-Stuff" fill-opacity="0.1" fill="#000000" points="16.5497723 0 30.7853851 0 39.3057092 75 0 75"></polygon>
                                </g>
                            </g>
                            <path d="M154.771979,12.5057815 C159.714059,9.52578026 168.005694,13.3544734 168.000003,17.6164511 C167.982967,30.3682808 156.394009,90.4676086 155.788934,94.2668047 C155.18386,98.0660008 148.70199,99.0695119 148.32453,94.2792554 C147.723927,86.6571484 146.60808,60.271002 147.72453,48.0578323 C148.185378,43.0164756 148.681688,38.2152566 149.170294,33.9318969 C143.089144,44.9596517 133.684338,60.7486903 120.955877,81.2990127 L114.045944,78.1288417 C119.472099,60.1763942 123.921465,47.5024439 127.394042,40.1069909 C133.339936,27.44418 138.915184,16.6001706 141.261626,12.7804562 C144.952579,6.77204523 151.377279,8.86846823 154.771979,12.5057815 Z" id="Skin" fill="#B28B67"></path>
                            <path d="M125.331719,74.2827794 L128.32185,13.1557753 C130.521834,2.58831981 149.268431,7.51924768 149.268431,13.1839293 C149.268166,26.0445103 141.627034,70.460528 141.626955,74.2921247 L125.331719,74.2827794 Z" id="LegLower" fill="#1F28CF" transform="translate(137.300075, 40.619432) rotate(20.000000) translate(-137.300075, -40.619432) "></path>
                            <g id="Accessories/Shoe/Flat-Sneaker" transform="translate(129.300000, 80.133891) rotate(30.000000) translate(-129.300000, -80.133891) translate(111.000000, 68.083682)" fill="#E4E4E4">
                                <path d="M1.32228382,16.0738209 C0.845132858,17.4542366 0.606557377,18.5174304 0.606557377,19.2634025 C0.606557377,20.3453742 0.788775829,21.9242401 1.15321273,24 C2.4220935,24 13.8257386,24 35.364148,24 C36.2531689,21.0927044 35.7399745,19.523149 33.8245647,19.2913339 C31.9091549,19.0595188 30.3179914,18.8502083 29.0510743,18.6634025 L13.5141387,11.8118396 C13.0088079,11.5889961 12.418506,11.8179973 12.1956625,12.3233281 C12.1929091,12.3295717 12.1902197,12.3358434 12.1875948,12.3421421 L11.3203096,14.423217 C9.54714107,15.2415913 8.10625756,15.6507784 6.99765905,15.6507784 C6.23529685,15.6507784 5.22708343,15.3929942 3.97301879,14.8774257 L3.97301732,14.8774292 C2.9514156,14.4574304 1.78276746,14.9451259 1.36276864,15.9667277 C1.34825449,16.0020318 1.33475402,16.0377441 1.32228382,16.0738209 Z" id="shoe"></path>
                            </g>
                            <g id="Accessories/Shoe/Flat-Sneaker" transform="translate(145.200000, 75.916318)" fill="#E4E4E4">
                                <path d="M1.32228382,16.0738209 C0.845132858,17.4542366 0.606557377,18.5174304 0.606557377,19.2634025 C0.606557377,20.3453742 0.788775829,21.9242401 1.15321273,24 C2.4220935,24 13.8257386,24 35.364148,24 C36.2531689,21.0927044 35.7399745,19.523149 33.8245647,19.2913339 C31.9091549,19.0595188 30.3179914,18.8502083 29.0510743,18.6634025 L13.5141387,11.8118396 C13.0088079,11.5889961 12.418506,11.8179973 12.1956625,12.3233281 C12.1929091,12.3295717 12.1902197,12.3358434 12.1875948,12.3421421 L11.3203096,14.423217 C9.54714107,15.2415913 8.10625756,15.6507784 6.99765905,15.6507784 C6.23529685,15.6507784 5.22708343,15.3929942 3.97301879,14.8774257 L3.97301732,14.8774292 C2.9514156,14.4574304 1.78276746,14.9451259 1.36276864,15.9667277 C1.34825449,16.0020318 1.33475402,16.0377441 1.32228382,16.0738209 Z" id="shoe"></path>
                            </g>
                            <path d="M169.662224,21.9512803 C169.662224,37.958159 162.09216,75.295909 162.08737,78.8204856 L145.8,78.8330486 C148.183966,45.5169426 149.029303,28.6794333 148.33601,28.3205209 C147.29607,27.7821523 105.705503,32.490395 93.2318147,32.490395 C75.2446951,32.490395 67.8037839,21.1001556 67.2,-4.40536496e-13 L102.831815,-4.40536496e-13 C110.086772,0.779568362 147.929295,8.4443388 161.983258,11.0792111 C168,12.207245 169.662224,17.5417974 169.662224,21.9512803 Z" id="Leg-and-Butt" fill="#2B44FF"></path>
                        </g>
                        <g id="Body/Jacket" transform="translate(13.200000, 49.246459)">
                            <path d="M116.72984,53.3781887 L133.770845,69.9296464 C138.729149,72.0353727 142.791773,74.3605197 145.958717,76.9050874 C146.670916,77.7604033 147.446259,79.3992326 144.095402,78.6658799 C140.744544,77.9325273 137.186819,77.3111915 136.557031,78.3961471 C135.927244,79.4811026 137.782964,81.1436401 136.619039,82.5635677 C135.843089,83.5101862 133.233507,80.4991782 128.790294,73.5305439 L111.069902,63.1287501 L116.72984,53.3781887 Z M41.091488,55.7124483 L53.6625752,55.7616683 C45.9005089,80.7093196 41.7101465,93.9463871 41.091488,95.4728708 C39.6995063,98.9074592 42.6451267,104.138278 43.9047908,106.949281 C39.8021066,108.777077 40.239252,102.008 35.0638262,104.405257 C30.3399376,106.593363 26.7464873,110.558063 21.2887165,107.205185 C20.6177156,106.792968 19.882408,105.240898 21.6590042,104.028038 C26.085153,101.00636 32.4635017,95.7178787 33.3253171,93.9771342 C34.5005563,91.6033181 37.0892799,78.8484228 41.091488,55.7124483 Z" id="Skin" fill="#B28B67"></path>
                            <path d="M73.4172282,5.53925314 L78.5217971,4.2009534 C89.3848436,25.6100074 106.725161,44.4093229 130.542751,60.5989001 L115.521624,82.3883883 C91.0341386,58.5119717 75.0017621,33.0703587 73.4172282,5.53925314 Z" id="Coat-Back" fill="#191847" transform="translate(101.979989, 43.294671) rotate(5.000000) translate(-101.979989, -43.294671) "></path>
                            <path d="M54.140625,68.2780749 L100.460938,68.2780749 C89.7295856,42.2995532 84.3639096,20.2311072 84.3639096,2.07273686 L70.3913595,0 C59.4102481,17.5836447 56.3091533,39.2326716 54.140625,68.2780749 Z" id="Shirt" fill="#DDE3E9"></path>
                            <path d="M70.0955272,0.00983435878 C70.0973617,0.00655566924 70.099196,0.0032775496 70.1010302,-4.26325641e-14 L71.0131009,-4.26325641e-14 C72.1044724,0.0374170652 73.7667713,0.104831338 75.9999976,0.202242817 L79.376267,9.80861266 C79.7334015,21.5210233 81.8190124,45.1246911 85.6330997,80.6196161 L55.2692053,80.6196161 C55.348804,83.0711041 55.4800496,85.5454923 55.6629419,88.0427807 L33.0859375,88.0427807 C36.4630591,50.1088978 48.795885,20.7613042 70.084415,1.42108547e-14 L70.0955272,0.00983435498 Z" id="Coat-Front" fill="#2F3676"></path>
                            <path d="M57.2749041,49.2519109 C58.1390565,64.5334969 60.3026302,75.0680649 63.765625,80.855615 L55.2770253,80.855615 C54.9053974,69.860961 55.5713571,59.3264052 57.2749033,49.2519151 Z" id="Shade" fill-opacity="0.1" fill="#000000"></path>
                            <polygon id="Light" fill-opacity="0.2" fill="#FFFFFF" points="62.0276501 62.2887701 77 55.3587082 77 62.2887701"></polygon>
                        </g>
                    </g>
                </g>
            </g>
        </g>
    </g>
</svg>