<svg width="16" height="16" viewBox="0 0 16 16" fill="none" xmlns="http://www.w3.org/2000/svg">
<path d="M7.99996 1.4668C8.32287 1.46665 8.63681 1.57307 8.89307 1.76956C9.14932 1.96605 9.33357 2.24161 9.41722 2.5535C9.50088 2.86539 9.47927 3.19617 9.35574 3.49453C9.23221 3.79288 9.01367 4.04213 8.73403 4.2036L8.73329 5.13346H13.1333C13.3278 5.13346 13.5143 5.21073 13.6518 5.34825C13.7894 5.48578 13.8666 5.67231 13.8666 5.8668V13.2001C13.8666 13.3946 13.7894 13.5811 13.6518 13.7187C13.5143 13.8562 13.3278 13.9335 13.1333 13.9335H2.86663C2.67213 13.9335 2.48561 13.8562 2.34808 13.7187C2.21055 13.5811 2.13329 13.3946 2.13329 13.2001V5.8668C2.13329 5.67231 2.21055 5.48578 2.34808 5.34825C2.48561 5.21073 2.67213 5.13346 2.86663 5.13346H7.26663V4.2036C6.98704 4.04216 6.76853 3.79298 6.64499 3.4947C6.52144 3.19642 6.49977 2.86571 6.58333 2.55386C6.66689 2.24201 6.85102 1.96644 7.10715 1.7699C7.36328 1.57335 7.67711 1.46681 7.99996 1.4668ZM5.79996 8.0668H5.06663C4.88701 8.06682 4.71364 8.13277 4.57942 8.25212C4.44519 8.37148 4.35944 8.53595 4.33843 8.71433L4.33329 8.80013V9.53346C4.33332 9.71308 4.39926 9.88644 4.51862 10.0207C4.63797 10.1549 4.80244 10.2406 4.98083 10.2617L5.06663 10.2668H5.79996C5.97958 10.2668 6.15294 10.2008 6.28717 10.0815C6.42139 9.96212 6.50714 9.79765 6.52816 9.61926L6.53329 9.53346V8.80013C6.53329 8.60564 6.45603 8.41911 6.3185 8.28159C6.18098 8.14406 5.99445 8.0668 5.79996 8.0668ZM10.9333 8.0668H10.2C10.0203 8.06682 9.84698 8.13277 9.71275 8.25212C9.57853 8.37148 9.49277 8.53595 9.47176 8.71433L9.46663 8.80013V9.53346C9.46665 9.71308 9.53259 9.88644 9.65195 10.0207C9.77131 10.1549 9.93577 10.2406 10.1142 10.2617L10.2 10.2668H10.9333C11.1129 10.2668 11.2863 10.2008 11.4205 10.0815C11.5547 9.96212 11.6405 9.79765 11.6615 9.61926L11.6666 9.53346V8.80013C11.6666 8.60564 11.5894 8.41911 11.4518 8.28159C11.3143 8.14406 11.1278 8.0668 10.9333 8.0668ZM1.39996 7.33346V11.0001C1.30366 11.0001 1.2083 10.9812 1.11932 10.9443C1.03035 10.9075 0.949511 10.8534 0.881414 10.7853C0.813318 10.7172 0.759301 10.6364 0.722448 10.5474C0.685594 10.4585 0.666626 10.3631 0.666626 10.2668V8.0668C0.666626 7.87231 0.743888 7.68578 0.881414 7.54825C1.01894 7.41073 1.20547 7.33346 1.39996 7.33346ZM14.6 7.33346C14.7945 7.33346 14.981 7.41073 15.1185 7.54825C15.256 7.68578 15.3333 7.87231 15.3333 8.0668V10.2668C15.3333 10.4613 15.256 10.6478 15.1185 10.7853C14.981 10.9229 14.7945 11.0001 14.6 11.0001V7.33346Z" fill="#6F94B3"/>
</svg>
