<svg width="16" height="16" viewBox="0 0 16 16" fill="" xmlns="http://www.w3.org/2000/svg">
<path d="M4 6.5C4 7.32843 3.32843 8 2.5 8C1.67157 8 1 7.32843 1 6.5C1 5.67157 1.67157 5 2.5 5C3.32843 5 4 5.67157 4 6.5Z" fill="

"/>
<path d="M15 2.5C15 3.32843 14.3284 4 13.5 4C12.6716 4 12 3.32843 12 2.5C12 1.67157 12.6716 1 13.5 1C14.3284 1 15 1.67157 15 2.5Z" fill="

"/>
<path d="M4 13.5C4 14.3284 3.32843 15 2.5 15C1.67157 15 1 14.3284 1 13.5C1 12.6716 1.67157 12 2.5 12C3.32843 12 4 12.6716 4 13.5Z" fill="

"/>
<path d="M15 10.5C15 11.3284 14.3284 12 13.5 12C12.6716 12 12 11.3284 12 10.5C12 9.67157 12.6716 9 13.5 9C14.3284 9 15 9.67157 15 10.5Z" fill="

"/>
<path fill-rule="evenodd" clip-rule="evenodd" d="M9.0637 11.3101L1.72265 6.41604L2.27735 5.58399L9.6184 10.478L12.9293 10.005L13.0707 10.995L9.75983 11.468C9.51626 11.5028 9.26842 11.4465 9.0637 11.3101Z" fill="

"/>
<path fill-rule="evenodd" clip-rule="evenodd" d="M13.9044 2.79407L10.2123 7.87068C9.87683 8.33192 9.22418 8.41965 8.77884 8.06338L7.14411 6.75558L3.43413 13.2481L2.56589 12.7519L6.27587 6.25944C6.58053 5.72627 7.2893 5.5911 7.76881 5.97472L9.40354 7.28251L13.0956 2.20589L13.9044 2.79407Z" fill="

"/>
</svg>
