<svg width="14" height="14" viewBox="0 0 14 14" fill="none" xmlns="http://www.w3.org/2000/svg">
<path fill-rule="evenodd" clip-rule="evenodd" d="M0.5 3C0.223858 3 0 2.77614 0 2.5C0 2.22386 0.223858 2 0.5 2L4.5 1.999V1C4.5 0.447715 4.94772 0 5.5 0H8.5C9.05229 0 9.5 0.447715 9.5 1V1.999L13.5 2C13.7761 2 14 2.22386 14 2.5C14 2.77614 13.7761 3 13.5 3H12.5V13C12.5 13.5523 12.0523 14 11.5 14H2.5C1.94772 14 1.5 13.5523 1.5 13V3H0.5ZM11.5 3H2.5V13H11.5V3ZM5 6C5.27614 6 5.5 6.22386 5.5 6.5V10.5C5.5 10.7761 5.27614 11 5 11C4.72386 11 4.5 10.7761 4.5 10.5V6.5C4.5 6.22386 4.72386 6 5 6ZM7 5C7.27614 5 7.5 5.22386 7.5 5.5V10.5C7.5 10.7761 7.27614 11 7 11C6.72386 11 6.5 10.7761 6.5 10.5V5.5C6.5 5.22386 6.72386 5 7 5ZM9 6C9.27614 6 9.5 6.22386 9.5 6.5V10.5C9.5 10.7761 9.27614 11 9 11C8.72386 11 8.5 10.7761 8.5 10.5V6.5C8.5 6.22386 8.72386 6 9 6ZM8.5 1H5.5V1.999H8.5V1Z" fill="#B7B7B7"/>
</svg>
