<svg width="58" height="59" viewBox="0 0 58 59" fill="none" xmlns="http://www.w3.org/2000/svg">
<g filter="url(#filter0_d_629_15468)">
<rect x="5" y="4" width="48" height="48" rx="24" fill="#2673DD"/>
<g filter="url(#filter1_d_629_15468)">
<path d="M42.2014 22.3627C43.1165 22.3627 43.8582 23.1045 43.8582 24.0195V37.1951C43.8582 38.1102 43.1165 38.8519 42.2014 38.8519H40.7445L40.7456 41.4509C40.7459 42.1785 39.8753 42.553 39.3472 42.0524L35.9714 38.8519H22.4957C21.5806 38.8519 20.8389 38.1102 20.8389 37.1951V24.0195C20.8389 23.1045 21.5806 22.3627 22.4957 22.3627H42.2014Z" fill="white"/>
</g>
<g filter="url(#filter2_d_629_15468)">
<path d="M15.7984 16.1901C14.8834 16.1901 14.1416 16.9318 14.1416 17.8469V34.0568C14.1416 34.9718 14.8834 35.7136 15.7984 35.7136H17.829L17.8276 39.1456C17.8273 39.8732 18.6979 40.2477 19.226 39.7471L23.4805 35.7136H39.7401C40.6551 35.7136 41.3969 34.9718 41.3969 34.0568V17.8469C41.3969 16.9318 40.6551 16.1901 39.7401 16.1901H15.7984Z" fill="white"/>
</g>
<path d="M26.3564 19.7228C26.3564 19.2653 26.7273 18.8944 27.1849 18.8944H28.328C28.7856 18.8944 29.1564 19.2653 29.1564 19.7228V27.066C29.1564 27.5235 28.7856 27.8944 28.328 27.8944H27.1849C26.7273 27.8944 26.3564 27.5235 26.3564 27.066V19.7228Z" fill="#2673DD"/>
<circle cx="27.7564" cy="30.352" r="1.4" fill="#2673DD"/>
</g>
<defs>
<filter id="filter0_d_629_15468" x="0.0999999" y="0.325" width="57.8" height="57.8" filterUnits="userSpaceOnUse" color-interpolation-filters="sRGB">
<feFlood flood-opacity="0" result="BackgroundImageFix"/>
<feColorMatrix in="SourceAlpha" type="matrix" values="0 0 0 0 0 0 0 0 0 0 0 0 0 0 0 0 0 0 127 0" result="hardAlpha"/>
<feOffset dy="1.225"/>
<feGaussianBlur stdDeviation="2.45"/>
<feColorMatrix type="matrix" values="0 0 0 0 0 0 0 0 0 0 0 0 0 0 0 0 0 0 0.12 0"/>
<feBlend mode="normal" in2="BackgroundImageFix" result="effect1_dropShadow_629_15468"/>
<feBlend mode="normal" in="SourceGraphic" in2="effect1_dropShadow_629_15468" result="shape"/>
</filter>
<filter id="filter1_d_629_15468" x="20.0105" y="21.5343" width="26.3332" height="23.2322" filterUnits="userSpaceOnUse" color-interpolation-filters="sRGB">
<feFlood flood-opacity="0" result="BackgroundImageFix"/>
<feColorMatrix in="SourceAlpha" type="matrix" values="0 0 0 0 0 0 0 0 0 0 0 0 0 0 0 0 0 0 127 0" result="hardAlpha"/>
<feOffset dx="0.828408" dy="0.828408"/>
<feGaussianBlur stdDeviation="0.828408"/>
<feComposite in2="hardAlpha" operator="out"/>
<feColorMatrix type="matrix" values="0 0 0 0 0 0 0 0 0 0 0 0 0 0 0 0 0 0 0.25 0"/>
<feBlend mode="normal" in2="BackgroundImageFix" result="effect1_dropShadow_629_15468"/>
<feBlend mode="normal" in="SourceGraphic" in2="effect1_dropShadow_629_15468" result="shape"/>
</filter>
<filter id="filter2_d_629_15468" x="13.3132" y="15.3617" width="30.5685" height="27.0995" filterUnits="userSpaceOnUse" color-interpolation-filters="sRGB">
<feFlood flood-opacity="0" result="BackgroundImageFix"/>
<feColorMatrix in="SourceAlpha" type="matrix" values="0 0 0 0 0 0 0 0 0 0 0 0 0 0 0 0 0 0 127 0" result="hardAlpha"/>
<feOffset dx="0.828408" dy="0.828408"/>
<feGaussianBlur stdDeviation="0.828408"/>
<feComposite in2="hardAlpha" operator="out"/>
<feColorMatrix type="matrix" values="0 0 0 0 0 0 0 0 0 0 0 0 0 0 0 0 0 0 0.25 0"/>
<feBlend mode="normal" in2="BackgroundImageFix" result="effect1_dropShadow_629_15468"/>
<feBlend mode="normal" in="SourceGraphic" in2="effect1_dropShadow_629_15468" result="shape"/>
</filter>
</defs>
</svg>
