<svg width="15" height="16" viewBox="0 0 15 16" fill="none" xmlns="http://www.w3.org/2000/svg">
<path fill-rule="evenodd" clip-rule="evenodd" d="M7.32799 1C10.8692 1 13.74 4.13401 13.74 8C13.74 11.866 10.8692 15 7.32799 15C3.78676 15 0.916016 11.866 0.916016 8C0.916016 4.13401 3.78676 1 7.32799 1ZM7.60429 10.5595C7.45723 10.743 7.33118 10.8347 7.24714 10.8347C7.20512 10.8347 7.18411 10.8347 7.14209 10.8118C7.10008 10.7889 7.10008 10.743 7.10008 10.6742C7.10008 10.6054 7.12108 10.4219 7.18411 10.1696C7.20512 10.0779 7.24714 9.89438 7.31017 9.64209L8.06649 6.6375L7.64631 6.72924C7.49925 6.75218 7.24714 6.79805 6.91099 6.84392C6.55384 6.88979 6.30173 6.91273 6.11265 6.93567V7.21089C6.32274 7.21089 6.4698 7.23383 6.55384 7.2797C6.63788 7.32557 6.67989 7.39438 6.67989 7.532V7.6008C6.67989 7.62374 6.67989 7.64667 6.65888 7.69255L6.07063 10.0779C6.02861 10.2614 5.98659 10.399 5.96558 10.4907C5.92357 10.6742 5.90256 10.8118 5.90256 10.9036C5.90256 11.1558 5.96558 11.3393 6.11265 11.454C6.25971 11.5687 6.40677 11.6375 6.59586 11.6375C6.91099 11.6375 7.20512 11.4999 7.47824 11.2017C7.64631 11.0182 7.87741 10.6742 8.19255 10.1696L7.98246 10.0091C7.87741 10.1925 7.73035 10.376 7.60429 10.5595ZM7.50555 4.3625C7.3061 4.3625 7.15097 4.43508 7.018 4.58024C6.88504 4.7254 6.81855 4.89476 6.81855 5.1125C6.81855 5.33024 6.88504 5.4996 7.018 5.64476C7.15097 5.78992 7.3061 5.8625 7.50555 5.8625C7.705 5.8625 7.86013 5.78992 7.9931 5.64476C8.12607 5.4996 8.19255 5.33024 8.19255 5.1125C8.19255 4.89476 8.12607 4.7254 7.9931 4.58024C7.86013 4.43508 7.705 4.3625 7.50555 4.3625Z" fill="#B7B7B7"/>
</svg>
