<?xml version="1.0" encoding="UTF-8"?>
<svg width="32px" height="32px" viewBox="0 0 32 32" version="1.1" xmlns="http://www.w3.org/2000/svg" xmlns:xlink="http://www.w3.org/1999/xlink">
    <title>Shape</title>
    <defs>
        <path d="M27.474153,27.1540497 L16.2251049,32 L4.84595031,27.474153 L0,16.2251049 L4.52584704,4.84595031 L15.7748951,0 L27.1540497,4.52584704 L32,15.7748951 L27.474153,27.1540497 Z M26.885576,15.2999032 C26.7255244,15.2999032 24.8596321,15.3546305 22.7655373,15.4465311 C22.647855,14.0185407 22.0810703,12.6644747 21.1464343,11.5784447 C22.1631944,10.6515856 23.170709,9.71463485 24.1688286,8.76773152 C24.2966447,8.64042718 24.3684941,8.46745804 24.3684941,8.28706033 C24.3684941,8.10666262 24.2966447,7.93369349 24.1688286,7.80638914 C24.0415243,7.67857311 23.8685552,7.60672365 23.6881575,7.60672365 C23.5077598,7.60672365 23.3347906,7.67857311 23.2074863,7.80638914 L20.4009035,10.8308487 C19.309696,9.90093177 17.9519371,9.34062126 16.5224911,9.23033235 C16.6143917,7.13623749 16.6701517,5.27034526 16.6701517,5.11029364 C16.6701517,4.73333568 16.3645669,4.42775088 15.9876089,4.42775088 C15.6106509,4.42775088 15.3050661,4.73333568 15.3050661,5.11029364 C15.3050661,5.27034526 15.3608261,7.13623749 15.4485963,9.23033235 C14.017668,9.34235107 12.6594248,9.90647765 11.5701839,10.8411746 C10.6447771,9.82973457 9.71059092,8.82636222 8.76773152,7.83117135 C8.64042718,7.70335532 8.46745804,7.63150585 8.28706033,7.63150585 C8.10666262,7.63150585 7.93369349,7.70335532 7.80638914,7.83117135 C7.67857311,7.95847569 7.60672365,8.13144483 7.60672365,8.31184254 C7.60672365,8.49224025 7.67857311,8.66520938 7.80638914,8.79251373 C7.92100675,8.90300099 9.27576636,10.1813488 10.8205227,11.5887706 C9.88427569,12.6802813 9.32005388,14.0416473 9.20968055,15.4754437 C7.84372787,15.413492 6.47719965,15.3649579 5.11029364,15.3298483 C4.73333568,15.3298483 4.42775088,15.6354331 4.42775088,16.0123911 C4.42775088,16.3893491 4.73333568,16.6949339 5.11029364,16.6949339 C5.26931266,16.6949339 7.1238464,16.6391739 9.20968055,16.5493385 C9.32216316,17.9826293 9.88612419,19.3433661 10.8205227,20.4360116 C9.81156167,21.3572777 8.81162157,22.2883751 7.82084545,23.2291707 C7.69283618,23.3561621 7.62083513,23.5290115 7.62083513,23.7093256 C7.62083513,23.8896397 7.69283618,24.0624891 7.82084545,24.1894805 C7.94783685,24.3174897 8.12068619,24.3894908 8.30100032,24.3894908 C8.48131446,24.3894908 8.6541638,24.3174897 8.7811552,24.1894805 C8.89474021,24.0769281 10.1648274,22.7262988 11.5743143,21.187738 C12.6697662,22.1212453 14.033936,22.6818134 15.4692481,22.7882543 C15.407352,24.1535205 15.3588179,25.5193598 15.3236528,26.885576 C15.3236528,27.2625339 15.6292376,27.5681187 16.0061955,27.5681187 C16.3831535,27.5681187 16.6887383,27.2625339 16.6887383,26.885576 C16.6887383,26.726557 16.6350436,24.869958 16.543143,22.7861891 C17.9766302,22.6695782 19.3357628,22.0995961 20.4236205,21.1588254 C21.3487312,22.1705387 22.2829198,23.1739137 23.2260729,24.1688286 C23.3533773,24.2966447 23.5263464,24.3684941 23.7067441,24.3684941 C23.8871418,24.3684941 24.060111,24.2966447 24.1874153,24.1688286 C24.3154246,24.0418373 24.3874256,23.8689879 24.3874256,23.6886738 C24.3874256,23.5083596 24.3154246,23.3355103 24.1874153,23.2085189 C24.0748629,23.0959664 22.7180381,21.8145208 21.1753469,20.4029687 C22.104996,19.3091425 22.6626295,17.9479673 22.7676025,16.5162956 C24.8596321,16.6081962 26.7255244,16.6639561 26.885576,16.6639561 C27.2519298,16.6496987 27.5415763,16.3485608 27.5415763,15.9819297 C27.5415763,15.6152985 27.2519298,15.3141606 26.885576,15.2999032 L26.885576,15.2999032 Z M17.6098096,17.2422072 C17.8360566,16.9496935 17.9778352,16.6007826 18.0197483,16.2333656 C18.9914166,16.3262988 20.371991,16.4058083 21.7556631,16.4739593 C21.66042,17.6673315 21.1963468,18.8015323 20.4277509,19.7193934 C19.5049056,18.8751171 18.5654071,18.049226 17.6098096,17.2422072 L17.6098096,17.2422072 Z M17.5922556,14.7340432 C18.5453041,13.9326126 19.481047,13.1108251 20.3988383,12.2692482 C21.1745545,13.1796912 21.6479945,14.3088024 21.7535979,15.5002259 C20.5067756,15.5543343 19.2612048,15.6342051 18.0176831,15.739787 C17.9693313,15.3722636 17.8223147,15.0247048 17.5922556,14.7340432 L17.5922556,14.7340432 Z M16.2313004,13.9802517 C16.323201,13.0127138 16.4037432,11.6321394 16.4708616,10.2484672 C17.6631546,10.3467123 18.7952861,10.813712 19.7101,11.5846402 C18.8684113,12.5037924 18.0445935,13.439151 17.2391094,14.3901904 C16.9480295,14.1621409 16.5989188,14.0201359 16.2313004,13.9802517 L16.2313004,13.9802517 Z M17.376444,14.9126815 L17.7409487,15.7666344 C17.7595353,15.9122298 17.7616005,16.0578251 17.7430139,16.2054856 L17.3929655,17.0656341 L17.0873185,17.3795418 L16.2333656,17.7419813 C16.0877703,17.7605679 15.9421749,17.7626331 15.7945144,17.7440465 L14.9343659,17.3929655 L14.6225234,17.0883511 L14.2600839,16.2333656 C14.2407964,16.0881066 14.2401024,15.9409815 14.2580187,15.795547 L14.6070345,14.9343659 L14.9116489,14.623556 L15.7666344,14.2611165 C15.9111972,14.2425298 16.0567925,14.2404647 16.204453,14.2590513 L17.0656341,14.6070345 L17.376444,14.9126815 L17.376444,14.9126815 Z M12.2609874,11.5929009 C13.1747257,10.818929 14.3069761,10.3489927 15.5002259,10.2484672 C15.5673443,11.6342046 15.6478864,13.014779 15.739787,13.9823169 C15.3727394,14.0301203 15.0257052,14.1772171 14.7361084,14.4077444 C13.9300151,13.4529711 13.104808,12.5145003 12.2609874,11.5929009 L12.2609874,11.5929009 Z M13.9792191,15.7686996 C12.7305533,15.6622697 11.4798172,15.5817103 10.2278154,15.5270732 C10.3270137,14.3316429 10.797033,13.1970266 11.5722491,12.2816392 C12.4952617,13.1253384 13.4344047,13.9512196 14.3891578,14.7588254 C14.163379,15.0519999 14.0216665,15.4011053 13.9792191,15.7686996 L13.9792191,15.7686996 Z M14.4098096,17.2638916 C13.6560181,17.8896418 12.613101,18.8138109 11.582575,19.7493385 C10.8023339,18.8352463 10.3285017,17.6994215 10.2278154,16.5018393 C11.4805044,16.4471948 12.7319285,16.3666354 13.9812843,16.260213 C14.0287835,16.6185221 14.1702485,16.9634076 14.4098096,17.2638916 L14.4098096,17.2638916 Z M15.7707648,18.0187157 C15.6778315,18.9934818 15.5962569,20.384382 15.5281059,21.7742498 C14.3305681,21.678478 13.1927697,21.2113742 12.2733785,20.4380768 C13.2089061,19.4054856 14.1330752,18.3625686 14.7619232,17.608777 C15.0613746,17.8421426 15.4093579,17.9774121 15.7707648,18.0187157 L15.7707648,18.0187157 Z M19.7410778,20.4112294 C18.8299086,21.1922778 17.6973133,21.668856 16.5018393,21.7742498 C16.4472557,20.52087 16.3666963,19.2687563 16.260213,18.0187157 C16.6185221,17.9712165 16.962375,17.8297515 17.2638916,17.5922556 C18.070472,18.5485688 18.8963707,19.4884201 19.7410778,20.4112294 L19.7410778,20.4112294 Z" id="path-1"></path>
    </defs>
    <g id="æ§ä»¶" stroke="none" stroke-width="1" fill="none" fill-rule="evenodd">
        <g id="top-admin" transform="translate(-16.000000, -12.000000)" fill-rule="nonzero">
            <g id="k8s_logo">
                <g transform="translate(16.000000, 12.000000)">
                    <g id="Shape">
                        <use fill="#316CE6" xlink:href="#path-1"></use>
                        <use fill="#FFFFFF" xlink:href="#path-1"></use>
                    </g>
                </g>
            </g>
        </g>
    </g>
</svg>