<svg width="12" height="14" viewBox="0 0 12 14" fill="none" xmlns="http://www.w3.org/2000/svg">
<path fill-rule="evenodd" clip-rule="evenodd" d="M3 1V2H1V13H11V2H9V1H11C11.5523 1 12 1.44772 12 2V13C12 13.5523 11.5523 14 11 14H1C0.447715 14 0 13.5523 0 13V2C0 1.44772 0.447715 1 1 1H3ZM4 1V2H8V1H4ZM4 0H8C8.55229 0 9 0.447715 9 1V2C9 2.55228 8.55229 3 8 3H4C3.44772 3 3 2.55228 3 2V1C3 0.447715 3.44772 0 4 0ZM3.5 5H8.5C8.77614 5 9 5.22386 9 5.5C9 5.77614 8.77614 6 8.5 6H3.5C3.22386 6 3 5.77614 3 5.5C3 5.22386 3.22386 5 3.5 5ZM3.5 8H8.5C8.77614 8 9 8.22386 9 8.5C9 8.77614 8.77614 9 8.5 9H3.5C3.22386 9 3 8.77614 3 8.5C3 8.22386 3.22386 8 3.5 8Z" fill="black"/>
</svg>
