<svg width="12" height="15" viewBox="0 0 12 15" fill="#333333" xmlns="http://www.w3.org/2000/svg">
<path fill-rule="evenodd" clip-rule="evenodd" d="M3 1.5V2.5H1V13.5H11V2.5H9V1.5H11C11.5523 1.5 12 1.94772 12 2.5V13.5C12 14.0523 11.5523 14.5 11 14.5H1C0.447715 14.5 0 14.0523 0 13.5V2.5C0 1.94772 0.447715 1.5 1 1.5H3ZM3.5 8.5H8.5C8.77614 8.5 9 8.72386 9 9C9 9.27614 8.77614 9.5 8.5 9.5H3.5C3.22386 9.5 3 9.27614 3 9C3 8.72386 3.22386 8.5 3.5 8.5ZM3.5 5.5H8.5C8.77614 5.5 9 5.72386 9 6C9 6.27614 8.77614 6.5 8.5 6.5H3.5C3.22386 6.5 3 6.27614 3 6C3 5.72386 3.22386 5.5 3.5 5.5ZM4 1.5V2.5H8V1.5H4ZM4 0.5H8C8.55228 0.5 9 0.947715 9 1.5V2.5C9 3.05228 8.55228 3.5 8 3.5H4C3.44772 3.5 3 3.05228 3 2.5V1.5C3 0.947715 3.44772 0.5 4 0.5Z" />
</svg>
