<svg width="14" height="14" viewBox="0 0 14 14" fill="none" xmlns="http://www.w3.org/2000/svg">
<path fill-rule="evenodd" clip-rule="evenodd" d="M12.7698 3.5355L10.6485 1.41418L8.52719 3.5355L10.6485 5.65683L12.7698 3.5355ZM9.94141 6.36393L7.82009 4.24261L1.71213 10.3506L1.5 12.684L3.83345 12.4719L9.94141 6.36393ZM11.3556 0.707078L13.4769 2.8284C13.8675 3.21892 13.8675 3.85209 13.4769 4.24261L4.54056 13.179C4.37514 13.3444 4.15696 13.4466 3.92399 13.4678L1.59054 13.6799C1.04052 13.7299 0.554108 13.3246 0.504107 12.7746C0.498631 12.7143 0.498631 12.6537 0.504107 12.5935L0.716239 10.26C0.737418 10.0271 0.839607 9.80888 1.00503 9.64346L9.94141 0.707078C10.3319 0.316553 10.9651 0.316553 11.3556 0.707078Z"/>
</svg>
