<svg width="16" height="16" viewBox="0 0 16 16" fill="none" xmlns="http://www.w3.org/2000/svg">
<path fill-rule="evenodd" clip-rule="evenodd" d="M14.5 14C14.7761 14 15 14.2239 15 14.5C15 14.7762 14.7761 15 14.5 15H1.5C1.22386 15 1 14.7762 1 14.5C1 14.2239 1.22386 14 1.5 14H14.5ZM1.15017 5.88325L5.95783 1.17532C6.2532 0.886076 6.73751 1.0621 6.80077 1.44698L6.80766 1.53255V3.77522C10.4336 3.95297 12.988 6.06764 14.313 9.12858C14.8045 10.2638 15.0537 11.4288 14.9905 12.1543C14.8853 13.3625 13.9513 13.2851 13.3569 12.2619L13.2899 12.1396C12.325 10.2736 10.2968 8.92016 7.17296 8.09868L6.80766 8.00625V10.7326C6.80766 11.1407 6.3531 11.3653 6.03269 11.1507L5.9663 11.0979L1.15864 6.60583C0.973631 6.43296 0.950029 6.15396 1.09001 5.95411L1.15017 5.88325L5.95783 1.17532L1.15017 5.88325ZM5.80766 2.72199L2.22329 6.23201L5.80766 9.58108V7.3793C5.80766 7.06107 6.10102 6.82381 6.41221 6.89036C10.1068 7.6804 12.6248 9.12431 13.931 11.2433C13.8387 10.7377 13.6567 10.1296 13.3953 9.52583C12.1569 6.66479 9.76093 4.76308 6.30766 4.76308C6.0622 4.76308 5.85805 4.58621 5.81571 4.35296L5.80766 4.26308V2.72199Z" fill="#1890FF"/>
</svg>
