<svg width="14" height="14" viewBox="0 0 14 14" fill="none" xmlns="http://www.w3.org/2000/svg">
<path fill-rule="evenodd" clip-rule="evenodd" d="M8.42424 0C8.81933 0 9.13961 0.313571 9.13961 0.700223L9.13999 1.88453C9.61061 2.07329 10.0525 2.32361 10.4541 2.62787L11.5026 2.03605C11.8447 1.84265 12.2822 1.95742 12.4798 2.29241L13.904 4.70759C14.1016 5.04257 13.9843 5.47092 13.6424 5.66422L12.5971 6.25563C12.6312 6.50218 12.6484 6.75197 12.6484 7.0038C12.6484 7.25345 12.6315 7.50109 12.598 7.74557L13.6422 8.33567C13.9843 8.52908 14.1016 8.95743 13.904 9.29241L12.4798 11.7076C12.2822 12.0426 11.8447 12.1573 11.5026 11.9639L10.4605 11.3748C10.0572 11.6813 9.61314 11.9333 9.13999 12.1231L9.13961 13.2996C9.13961 13.6864 8.81933 14 8.42424 14H5.57575C5.18067 14 4.86038 13.6864 4.86038 13.3L4.85951 12.1229C4.38662 11.9332 3.94279 11.6813 3.53968 11.375L2.49742 11.9639C2.15526 12.1573 1.71775 12.0426 1.52021 11.7076L0.0959607 9.29241C-0.101583 8.95743 0.0156482 8.52908 0.357816 8.33567L1.40198 7.74549C1.36848 7.50104 1.35155 7.25342 1.35155 7.0038C1.35155 6.752 1.36878 6.50224 1.40286 6.25571L0.357804 5.66433C0.0156482 5.47092 -0.101583 5.04257 0.0959607 4.70759L1.52021 2.29241C1.71775 1.95742 2.15526 1.84265 2.49704 2.03584L3.54616 2.6277C3.86727 2.38444 4.21413 2.17566 4.58084 2.00527L4.85951 1.88473L4.86038 0.70038C4.86038 0.313571 5.18067 0 5.57575 0H8.42424ZM8.11775 1.00054H5.88212L5.88094 2.59268L5.53222 2.70681C4.94351 2.89946 4.40132 3.20707 3.93675 3.60925L3.66151 3.84753L2.25208 3.05241L1.13422 4.94804L2.53958 5.74332L2.46634 6.09601C2.4048 6.39238 2.37351 6.69597 2.37351 7.0038C2.37351 7.30976 2.40442 7.61153 2.46523 7.9062L2.53797 8.25872L1.13422 9.0521L2.25197 10.9474L3.65565 10.1542L3.93118 10.3935C4.39696 10.7981 4.94114 11.1074 5.53222 11.3008L5.88094 11.4149L5.88212 12.9995H8.11775L8.11826 11.4151L8.4672 11.301C9.05859 11.1075 9.60305 10.7981 10.069 10.3933L10.3446 10.154L11.7481 10.9474L12.8658 9.05211L11.462 8.25884L11.5347 7.90629C11.5956 7.6116 11.6265 7.3098 11.6265 7.0038C11.6265 6.69594 11.5952 6.39232 11.5336 6.09592L11.4604 5.7432L12.8658 4.94802L11.7479 3.05247L10.3388 3.84785L10.0635 3.60947C9.59872 3.20705 9.05623 2.8993 8.4672 2.70662L8.11826 2.59248L8.11775 1.00054ZM7 4.2007C8.54601 4.2007 9.7993 5.45399 9.7993 7C9.7993 8.54601 8.54601 9.7993 7 9.7993C5.45399 9.7993 4.2007 8.54601 4.2007 7C4.2007 5.45399 5.45399 4.2007 7 4.2007ZM7 5.2007C6.00627 5.2007 5.2007 6.00627 5.2007 7C5.2007 7.99373 6.00627 8.7993 7 8.7993C7.99373 8.7993 8.7993 7.99373 8.7993 7C8.7993 6.00627 7.99373 5.2007 7 5.2007Z"/>
</svg>
