<svg width="15" height="13" viewBox="0 0 15 13" fill="none" xmlns="http://www.w3.org/2000/svg">
<path fill-rule="evenodd" clip-rule="evenodd" d="M11.0002 7.29419L13.1107 8.14587C13.5966 8.3203 14 8.79252 14 9.30959L14.0042 10.0969C14.0042 10.6611 13.5671 11.0063 13.0038 11.0063H12.6569C12.6465 10.9645 12.6363 10.9215 12.6258 10.8776C12.5532 10.5728 12.471 10.2276 12.2791 9.99246H13.0038V9.30959C13.0038 9.21031 12.9561 9.06109 12.8019 9.00575C12.7942 9.00296 10.6962 8.14587 10.6962 8.14587C10.6388 8.11502 10.5765 8.0841 10.5112 8.05173C10.2805 7.93727 10.0134 7.80475 9.79875 7.59373C9.53136 7.33095 9.40264 6.99999 9.40264 6.54503C9.40264 6.37569 9.75058 5.61534 9.95065 5.31324L10.0175 5.21211C10.3352 4.72984 10.7508 3.97035 10.7508 3.4187C10.7508 2.73038 10.5399 2.09123 10.157 1.61899C9.81932 1.20262 9.38737 0.973302 8.93342 0.973412C8.68514 0.678753 8.40803 0.426918 8.10579 0.220729C8.36891 0.116315 8.64939 0.0596924 8.94064 0.0596924C10.4448 0.0596924 11.6644 1.5637 11.6644 3.41868C11.6644 4.32138 11.1024 5.15466 10.7383 5.69466C10.6179 5.87317 10.5191 6.01963 10.4694 6.12596C10.4498 6.16798 10.43 6.20595 10.411 6.24237C10.3414 6.37559 10.2827 6.48811 10.2827 6.70238C10.2827 6.97524 11.0002 7.29419 11.0002 7.29419ZM10.8435 9.65744C10.8435 9.65744 8.00298 8.27199 7.80961 8.08193C7.68532 7.95976 7.69963 7.69555 7.80961 7.32737C7.83887 7.22945 7.93569 7.06241 8.06207 6.84438C8.41088 6.24261 8.98484 5.2524 8.98484 4.25473C8.98484 2.15566 7.85989 0.487233 6.00768 0.487233C4.15548 0.487233 2.8834 2.15553 2.8834 4.25473C2.8834 5.34764 3.67972 6.61694 4.02234 7.16305L4.02234 7.16306C4.08782 7.26744 4.13673 7.34539 4.16034 7.39065C4.30758 7.67274 4.27175 8.10264 4.15548 8.23285C3.98092 8.42847 0.98998 9.67326 0.98998 9.67326C0.44026 9.87076 0.00952148 10.3893 0.00952148 10.9742V12C0.00952148 12.5523 0.457237 13 1.00952 13H11.0058C11.5581 13 12.0058 12.5523 12.0058 12V10.9742C12.0059 10.3892 11.3933 9.85484 10.8435 9.65744ZM10.9867 11.987C10.955 12.0139 0.999347 11.987 0.999347 11.987V11.0156C0.999347 10.8439 1.08816 10.6088 1.29888 10.5331C1.32017 10.5254 1.34119 10.517 1.36186 10.5078C1.36186 10.5078 4.49474 9.13974 4.76641 8.83532C5.1994 8.35036 5.24336 7.49116 4.97021 6.9679C4.92414 6.87958 4.8614 6.78358 4.76641 6.63826C4.74626 6.60743 4.71738 6.56596 4.68201 6.51516C4.4059 6.11861 3.7344 5.15419 3.7344 4.25485C3.7344 3.44841 3.98255 2.69823 4.43314 2.14249C4.8384 1.64263 5.45271 1.37234 5.9951 1.37234C6.53757 1.37234 7.09465 1.64263 7.49997 2.14249C7.95059 2.69822 8.15593 3.44848 8.15593 4.25485C8.15593 5.13376 7.51094 6.16838 7.17489 6.70742C7.09463 6.83617 7.03198 6.93666 6.99997 6.99999C6.7278 7.53839 6.7849 8.37174 7.16739 8.74769C7.46309 9.03834 10.5117 10.5087 10.5117 10.5087C10.5193 10.5116 10.527 10.5145 10.5347 10.5173C10.7419 10.5917 10.9867 10.838 10.9867 11.0156C10.9867 11.0156 10.995 11.9799 10.9867 11.987Z"/>
</svg>
