<svg width="16" height="16" viewBox="0 0 16 16" fill="none" xmlns="http://www.w3.org/2000/svg">
<rect opacity="0.01" width="16" height="16" fill="#DADADA"/>
<path fill-rule="evenodd" clip-rule="evenodd" d="M11.125 4.875C11.125 4.0125 10.8204 3.27656 10.2094 2.66563C9.59849 2.05469 8.86255 1.75 8.00005 1.75C7.13755 1.75 6.40161 2.05469 5.79067 2.66563C5.17974 3.27656 4.87505 4.0125 4.87505 4.875C4.87505 5.7375 5.17974 6.47344 5.79067 7.08437C6.40161 7.69531 7.13755 8 8.00005 8C8.86255 8 9.59849 7.69531 10.2094 7.08437C10.8204 6.47344 11.125 5.7375 11.125 4.875ZM12.7 13.6156C13.0391 13.1922 13.2079 12.6859 13.2079 12.0938C13.2079 11.6328 13.186 11.1969 13.1422 10.7875C13.0969 10.3766 13.011 9.96406 12.886 9.55C12.761 9.13437 12.6016 8.78125 12.4094 8.48437C12.2157 8.18906 11.961 7.94687 11.6438 7.76094C11.325 7.57344 10.961 7.47969 10.5485 7.47969C9.83755 8.175 8.98911 8.52187 8.00161 8.52187C7.01411 8.52187 6.16567 8.175 5.45474 7.47969C5.04224 7.47969 4.67661 7.575 4.35942 7.76094C4.04224 7.94687 3.78599 8.18906 3.5938 8.48437C3.40161 8.77969 3.24224 9.13594 3.11724 9.55C2.99224 9.96562 2.90786 10.3781 2.86099 10.7875C2.81411 11.1969 2.79224 11.6328 2.79224 12.0938C2.79224 12.6844 2.96099 13.1922 3.30005 13.6156C3.63911 14.0375 4.04692 14.25 4.52505 14.25H11.475C11.9516 14.25 12.361 14.0391 12.7 13.6156Z" fill="#0F4C81"/>
<path fill-rule="evenodd" clip-rule="evenodd" d="M11.125 4.875C11.125 4.0125 10.8204 3.27656 10.2094 2.66563C9.59849 2.05469 8.86255 1.75 8.00005 1.75C7.13755 1.75 6.40161 2.05469 5.79067 2.66563C5.17974 3.27656 4.87505 4.0125 4.87505 4.875C4.87505 5.7375 5.17974 6.47344 5.79067 7.08437C6.40161 7.69531 7.13755 8 8.00005 8C8.86255 8 9.59849 7.69531 10.2094 7.08437C10.8204 6.47344 11.125 5.7375 11.125 4.875ZM12.7 13.6156C13.0391 13.1922 13.2079 12.6859 13.2079 12.0938C13.2079 11.6328 13.186 11.1969 13.1422 10.7875C13.0969 10.3766 13.011 9.96406 12.886 9.55C12.761 9.13437 12.6016 8.78125 12.4094 8.48437C12.2157 8.18906 11.961 7.94687 11.6438 7.76094C11.325 7.57344 10.961 7.47969 10.5485 7.47969C9.83755 8.175 8.98911 8.52187 8.00161 8.52187C7.01411 8.52187 6.16567 8.175 5.45474 7.47969C5.04224 7.47969 4.67661 7.575 4.35942 7.76094C4.04224 7.94687 3.78599 8.18906 3.5938 8.48437C3.40161 8.77969 3.24224 9.13594 3.11724 9.55C2.99224 9.96562 2.90786 10.3781 2.86099 10.7875C2.81411 11.1969 2.79224 11.6328 2.79224 12.0938C2.79224 12.6844 2.96099 13.1922 3.30005 13.6156C3.63911 14.0375 4.04692 14.25 4.52505 14.25H11.475C11.9516 14.25 12.361 14.0391 12.7 13.6156Z" fill="white" fill-opacity="0.4"/>
</svg>
