<svg width="20" height="17" viewBox="0 0 20 17" fill="none" xmlns="http://www.w3.org/2000/svg">
<path d="M9.99967 0.833313C10.4033 0.833129 10.7957 0.966161 11.1161 1.21177C11.4364 1.45738 11.6667 1.80183 11.7713 2.1917C11.8758 2.58156 11.8488 2.99503 11.6944 3.36798C11.54 3.74092 11.2668 4.05247 10.9173 4.25431L10.9163 5.41665H16.4163C16.6595 5.41665 16.8926 5.51322 17.0645 5.68513C17.2364 5.85704 17.333 6.0902 17.333 6.33331V15.5C17.333 15.7431 17.2364 15.9763 17.0645 16.1482C16.8926 16.3201 16.6595 16.4166 16.4163 16.4166H3.58301C3.33989 16.4166 3.10673 16.3201 2.93483 16.1482C2.76292 15.9763 2.66634 15.7431 2.66634 15.5V6.33331C2.66634 6.0902 2.76292 5.85704 2.93483 5.68513C3.10673 5.51322 3.33989 5.41665 3.58301 5.41665H9.08301V4.25431C8.73352 4.05251 8.46038 3.74104 8.30596 3.36819C8.15153 2.99534 8.12444 2.58195 8.22889 2.19214C8.33334 1.80233 8.5635 1.45787 8.88366 1.21219C9.20383 0.966507 9.59611 0.833331 9.99967 0.833313ZM7.24967 9.08331H6.33301C6.10849 9.08334 5.89178 9.16577 5.724 9.31497C5.55622 9.46417 5.44903 9.66975 5.42276 9.89273L5.41634 9.99998V10.9166C5.41637 11.1412 5.4988 11.3579 5.648 11.5257C5.79719 11.6934 6.00278 11.8006 6.22576 11.8269L6.33301 11.8333H7.24967C7.4742 11.8333 7.6909 11.7509 7.85868 11.6017C8.02646 11.4525 8.13366 11.2469 8.15992 11.0239L8.16634 10.9166V9.99998C8.16634 9.75686 8.06976 9.52371 7.89786 9.3518C7.72595 9.17989 7.49279 9.08331 7.24967 9.08331ZM13.6663 9.08331H12.7497C12.5252 9.08334 12.3084 9.16577 12.1407 9.31497C11.9729 9.46417 11.8657 9.66975 11.8394 9.89273L11.833 9.99998V10.9166C11.833 11.1412 11.9155 11.3579 12.0647 11.5257C12.2139 11.6934 12.4194 11.8006 12.6424 11.8269L12.7497 11.8333H13.6663C13.8909 11.8333 14.1076 11.7509 14.2753 11.6017C14.4431 11.4525 14.5503 11.2469 14.5766 11.0239L14.583 10.9166V9.99998C14.583 9.75686 14.4864 9.52371 14.3145 9.3518C14.1426 9.17989 13.9095 9.08331 13.6663 9.08331ZM1.74967 8.16665V12.75C1.6293 12.75 1.5101 12.7263 1.39888 12.6802C1.28767 12.6341 1.18661 12.5666 1.10149 12.4815C1.01637 12.3964 0.948852 12.2953 0.902785 12.1841C0.856718 12.0729 0.833008 11.9537 0.833008 11.8333V9.08331C0.833008 8.8402 0.929585 8.60704 1.10149 8.43513C1.2734 8.26322 1.50656 8.16665 1.74967 8.16665ZM18.2497 8.16665C18.4928 8.16665 18.7259 8.26322 18.8979 8.43513C19.0698 8.60704 19.1663 8.8402 19.1663 9.08331V11.8333C19.1663 12.0764 19.0698 12.3096 18.8979 12.4815C18.7259 12.6534 18.4928 12.75 18.2497 12.75V8.16665Z" fill="#B37FEB"/>
</svg>
