<svg width="26" height="29" viewBox="0 0 26 29" fill="none" xmlns="http://www.w3.org/2000/svg">
<path fill-rule="evenodd" clip-rule="evenodd" d="M17.2262 21.0629C17.0603 22.4225 16.2308 23.5118 14.9463 24.0572C14.2313 24.3608 13.2729 24.5241 12.5132 24.4726C11.3317 24.4277 10.2212 24.1417 9.19806 23.6199C8.82565 23.43 8.27963 23.0546 7.86799 22.7114C7.7742 22.6334 7.72588 22.5635 7.81618 22.4364C7.9123 22.292 8.29295 21.742 8.3529 21.6512C8.43379 21.5278 8.5667 21.5216 8.68851 21.617C8.70532 21.6299 8.82903 21.7258 8.85399 21.7444C9.83903 22.5108 11.1094 23.0864 12.521 23.1403C14.3014 23.1162 15.5931 22.3231 15.8237 21.095C16.0778 19.7414 14.9981 18.5805 12.9187 17.9329C12.2578 17.7271 10.5958 17.0659 10.2888 16.8869C8.84014 16.0427 8.16543 14.9352 8.26165 13.572C8.40873 11.6827 10.1717 10.267 12.4089 10.2576C13.4708 10.2554 14.4666 10.4894 15.3539 10.861C15.6805 10.9976 16.2888 11.3235 16.5056 11.4845C16.6571 11.5949 16.6455 11.7187 16.5857 11.8145C16.4973 11.9612 16.2344 12.3704 16.1285 12.5409C16.0512 12.6579 15.9555 12.6713 15.8195 12.5857C14.6753 11.8221 13.4987 11.5633 12.4394 11.5421C10.9111 11.5723 9.75867 12.4746 9.68296 13.7118C9.66298 14.8294 10.5174 15.64 12.3314 16.2591C16.0762 17.4546 17.495 18.8599 17.2262 21.0629ZM12.605 1.6433C15.029 1.6433 17.0049 3.92868 17.0974 6.78934H8.11256C8.20508 3.92868 10.181 1.6433 12.605 1.6433ZM21.8078 28.139C23.0882 28.1043 24.1253 27.0697 24.2349 25.7872L24.2431 25.6324L25.1496 7.35521V7.35489C25.15 7.34569 25.1502 7.33649 25.1502 7.32718C25.1502 7.03007 24.9096 6.78934 24.6125 6.78934H24.6042H18.7889C18.646 3.01207 15.932 0.000152588 12.605 0.000152588C9.27799 0.000152588 6.56405 3.01207 6.42109 6.78934H0.589073V6.78945C0.29671 6.79473 0.0613403 7.03346 0.0613403 7.32718C0.0613403 7.34125 0.0617633 7.35511 0.0629264 7.36886L0.0628206 7.36896L0.890105 25.5745L0.902476 25.8027C1.02873 27.0695 1.95413 28.0899 3.21261 28.137H3.21304L21.7151 28.1397L21.8078 28.139Z" fill="white"/>
</svg>
