<svg width="20" height="20" viewBox="0 0 20 20" fill="none" xmlns="http://www.w3.org/2000/svg">
<rect opacity="0.01" width="20" height="20" fill="#79B6F7"/>
<path fill-rule="evenodd" clip-rule="evenodd" d="M13.9062 6.09375C13.9062 5.01562 13.5254 4.0957 12.7617 3.33203C11.998 2.56836 11.0781 2.1875 10 2.1875C8.92188 2.1875 8.00195 2.56836 7.23828 3.33203C6.47461 4.0957 6.09375 5.01562 6.09375 6.09375C6.09375 7.17188 6.47461 8.0918 7.23828 8.85547C8.00195 9.61914 8.92188 10 10 10C11.0781 10 11.998 9.61914 12.7617 8.85547C13.5254 8.0918 13.9062 7.17188 13.9062 6.09375ZM15.875 17.0195C16.2988 16.4902 16.5098 15.8574 16.5098 15.1172C16.5098 14.541 16.4824 13.9961 16.4277 13.4844C16.3711 12.9707 16.2637 12.4551 16.1074 11.9375C15.9512 11.418 15.752 10.9766 15.5117 10.6055C15.2695 10.2363 14.9512 9.93359 14.5547 9.70117C14.1562 9.4668 13.7012 9.34961 13.1855 9.34961C12.2969 10.2188 11.2363 10.6523 10.002 10.6523C8.76758 10.6523 7.70703 10.2188 6.81836 9.34961C6.30273 9.34961 5.8457 9.46875 5.44922 9.70117C5.05273 9.93359 4.73242 10.2363 4.49219 10.6055C4.25195 10.9746 4.05273 11.4199 3.89648 11.9375C3.74023 12.457 3.63477 12.9727 3.57617 13.4844C3.51758 13.9961 3.49023 14.541 3.49023 15.1172C3.49023 15.8555 3.70117 16.4902 4.125 17.0195C4.54883 17.5469 5.05859 17.8125 5.65625 17.8125H14.3438C14.9395 17.8125 15.4512 17.5488 15.875 17.0195Z" fill="#79B6F7"/>
</svg>
