<svg width="16" height="16" viewBox="0 0 16 16" fill="none" xmlns="http://www.w3.org/2000/svg">
<path d="M14.4198 7.1985C14.3947 6.96225 14.3579 6.68925 14.2832 6.39117C14.2086 6.09308 14.0843 5.76992 13.9228 5.42225C13.7489 5.08683 13.5378 4.72633 13.2519 4.39092C13.1399 4.25442 13.0157 4.13017 12.8914 3.99367C13.0903 3.21083 12.6552 2.52775 12.6552 2.52775C11.8974 2.47817 11.4255 2.764 11.2517 2.88825C11.2266 2.876 11.1898 2.86317 11.1648 2.85092C11.0405 2.80133 10.904 2.75175 10.7675 2.70158C10.631 2.66425 10.4939 2.61467 10.3574 2.58958C10.2209 2.55225 10.0716 2.52775 9.92283 2.50267C9.89775 2.50267 9.87325 2.49042 9.84817 2.49042C9.525 1.44683 8.58117 1 8.58117 1C7.50025 1.69592 7.28908 2.6275 7.28908 2.6275C7.28908 2.6275 7.28908 2.65258 7.27683 2.67708C7.215 2.68933 7.16483 2.71442 7.103 2.72667C7.02833 2.75175 6.94142 2.77625 6.86675 2.81358C6.79208 2.85092 6.70517 2.87542 6.6305 2.91275C6.46892 2.98742 6.32017 3.06208 6.15858 3.149C6.0091 3.23264 5.86405 3.32396 5.724 3.42258C5.69892 3.41033 5.68667 3.3975 5.68667 3.3975C4.233 2.83867 2.9415 3.5095 2.9415 3.5095C2.8295 5.06233 3.52542 6.03125 3.66192 6.20508C3.62458 6.30425 3.60008 6.39117 3.56275 6.49092C3.45203 6.84348 3.37297 7.20522 3.3265 7.57183C3.31425 7.62142 3.31425 7.68383 3.30142 7.73342C1.95975 8.392 1.5625 9.75817 1.5625 9.75817C2.68075 11.0503 3.99733 11.1249 3.99733 11.1249C4.16183 11.4233 4.35317 11.706 4.569 11.9696C4.65592 12.0816 4.75508 12.1807 4.85483 12.2928C4.44475 13.4606 4.91667 14.4418 4.91667 14.4418C6.17142 14.4913 6.991 13.8952 7.16483 13.7587L7.53758 13.8707C7.92258 13.9698 8.32042 14.0323 8.70542 14.0445H9.21467C9.79858 14.8892 10.8422 15.0012 10.8422 15.0012C11.5748 14.2183 11.625 13.4606 11.625 13.2867V13.2121C11.7743 13.1001 11.9231 12.9887 12.0724 12.8644C12.3705 12.6037 12.619 12.2928 12.8424 11.9702C12.8675 11.9451 12.8798 11.9083 12.9043 11.8832C13.7367 11.9328 14.3206 11.3617 14.3206 11.3617C14.1841 10.492 13.6871 10.0697 13.5879 9.995L13.5757 9.98275L13.5634 9.9705L13.5512 9.95825C13.5512 9.90867 13.5634 9.85908 13.5634 9.79667C13.5757 9.6975 13.5757 9.61058 13.5757 9.51083V9.15033C13.5757 9.12525 13.5757 9.10075 13.5634 9.07567L13.5383 8.92633C13.5261 8.82717 13.501 8.74025 13.4888 8.6405C13.4022 8.27309 13.2597 7.92113 13.0664 7.59692C12.8719 7.28301 12.6334 6.99857 12.3583 6.75225C12.0916 6.51653 11.7899 6.32367 11.464 6.18058C11.1541 6.03645 10.8226 5.94403 10.4828 5.907C10.3212 5.88192 10.1474 5.88192 9.98583 5.88192H9.73733C9.65042 5.89417 9.5635 5.907 9.48883 5.91925C9.15342 5.98108 8.84308 6.10533 8.5695 6.26692C8.29592 6.4285 8.06025 6.63967 7.86133 6.87533C7.66855 7.09946 7.51706 7.35602 7.41392 7.63308C7.31475 7.89383 7.25233 8.17967 7.24008 8.44042V8.7385C7.24008 8.77583 7.24008 8.80033 7.25233 8.83767C7.29096 9.22024 7.43269 9.58515 7.66242 9.8935C7.81175 10.0924 7.97275 10.2412 8.15942 10.3654C8.3455 10.4897 8.53217 10.5766 8.73108 10.639C8.93 10.7014 9.11608 10.7259 9.28992 10.7137H9.55008C9.57517 10.7137 9.59967 10.7014 9.61192 10.7014C9.637 10.7014 9.64925 10.6892 9.67375 10.6892C9.71108 10.6769 9.76067 10.6641 9.798 10.6518C9.87267 10.6267 9.94733 10.59 10.0214 10.5649C10.0961 10.5276 10.1579 10.4902 10.2075 10.4529C10.2197 10.4407 10.2448 10.4278 10.2571 10.4156C10.272 10.4043 10.2845 10.3902 10.2938 10.374C10.3032 10.3578 10.3092 10.34 10.3116 10.3214C10.3139 10.3029 10.3125 10.2841 10.3075 10.2661C10.3024 10.2481 10.2938 10.2313 10.2822 10.2167C10.2581 10.1931 10.2277 10.177 10.1947 10.1704C10.1616 10.1637 10.1274 10.1669 10.0961 10.1793C10.0838 10.1916 10.071 10.1916 10.0465 10.2044C9.99493 10.2306 9.94077 10.2513 9.88492 10.2663C9.82308 10.2785 9.76067 10.3036 9.69883 10.3158C9.6615 10.3158 9.637 10.3281 9.59967 10.3281H9.38908C9.38908 10.3281 9.37683 10.3281 9.38908 10.3281H9.33892C9.32608 10.3281 9.30158 10.3281 9.28933 10.3158C9.15283 10.2907 9.0035 10.254 8.867 10.1916C8.7305 10.1292 8.59342 10.0423 8.482 9.93083C8.35775 9.81883 8.25858 9.69458 8.17167 9.54583C8.08475 9.39708 8.03517 9.2355 8.01008 9.07392C7.99783 8.987 7.985 8.90008 7.99783 8.81317V8.7385C7.99783 8.75075 7.99783 8.7385 7.99783 8.7385V8.67608C7.99783 8.6265 8.01008 8.58917 8.02292 8.53958C8.08851 8.15554 8.27584 7.80277 8.55725 7.53333C8.63192 7.45867 8.70658 7.39683 8.7935 7.34725C8.88042 7.28542 8.96733 7.23525 9.05425 7.19792C9.14117 7.16058 9.24033 7.12325 9.34008 7.09875C9.43925 7.07367 9.539 7.04917 9.63817 7.04917C9.68775 7.04917 9.73733 7.03692 9.7875 7.03692H9.88667C9.89892 7.03692 9.88667 7.03692 9.88667 7.03692H9.93625C10.2677 7.06459 10.5895 7.162 10.8807 7.32275C11.2779 7.54617 11.6133 7.88158 11.8123 8.29167C11.9114 8.49058 11.9861 8.714 12.0234 8.95025C12.0357 9.01208 12.0357 9.06225 12.0485 9.12408V9.44725C12.0485 9.50908 12.0363 9.5715 12.0363 9.63333C12.024 9.69517 12.024 9.75758 12.0112 9.81942L11.9738 10.0055C11.9616 10.0673 11.8992 10.2418 11.8618 10.366C11.8245 10.4903 11.6507 10.8257 11.5013 11.0246C11.1996 11.4374 10.7977 11.7667 10.3335 11.9812C10.0972 12.0804 9.86158 12.1673 9.61308 12.2047C9.49039 12.2295 9.36552 12.242 9.24033 12.242H9.05425C9.0665 12.242 9.05425 12.242 9.05425 12.242H9.042C8.98017 12.242 8.9055 12.242 8.84308 12.2297C8.5695 12.2047 8.30875 12.1551 8.048 12.0804C7.78725 12.0057 7.53875 11.9066 7.3025 11.7823C6.8292 11.5276 6.41122 11.1814 6.07283 10.7638C5.91125 10.5527 5.7625 10.3293 5.63825 10.093C5.514 9.85675 5.42708 9.60825 5.35242 9.36033C5.27978 9.10969 5.23805 8.8511 5.22817 8.59033V8.20533C5.22817 8.08108 5.24042 7.94458 5.2655 7.80808C5.27775 7.67158 5.30283 7.54733 5.32733 7.41083C5.35183 7.27433 5.38917 7.15008 5.4265 7.01358C5.46383 6.87708 5.58808 6.50433 5.70008 6.26808C5.9235 5.79617 6.20933 5.37383 6.54475 5.03842C6.63167 4.9515 6.71858 4.87683 6.81833 4.80217C6.85567 4.76483 6.94258 4.69017 7.04175 4.62833C7.14092 4.5665 7.24067 4.50408 7.35208 4.4545C7.40167 4.42942 7.45125 4.40492 7.51367 4.37983C7.53875 4.36758 7.56325 4.35475 7.60058 4.3425C7.62567 4.33025 7.65017 4.31742 7.6875 4.30517C7.7995 4.25558 7.91092 4.21825 8.02292 4.18092C8.048 4.16867 8.08475 4.16867 8.10983 4.15583C8.13492 4.143 8.17167 4.14358 8.19675 4.13075C8.22183 4.11792 8.30875 4.10567 8.37058 4.08117C8.39567 4.06892 8.43242 4.06892 8.4575 4.05608C8.48258 4.05608 8.51933 4.04383 8.54442 4.04383C8.5695 4.04383 8.60625 4.03158 8.63133 4.03158L8.7305 4.0065C8.75558 4.0065 8.79233 3.99425 8.81742 3.99425C8.85475 3.99425 8.87925 3.982 8.91658 3.982C8.94167 3.982 8.99125 3.96975 9.01575 3.96975C9.04025 3.96975 9.05308 3.96975 9.07758 3.9575H9.1645C9.20183 3.9575 9.22633 3.9575 9.26367 3.94525H9.31325C9.31325 3.94525 9.3255 3.94525 9.31325 3.94525H9.77292C9.99633 3.9575 10.2203 3.98258 10.4315 4.01992C10.8465 4.09207 11.2484 4.22598 11.6238 4.41717C11.9729 4.58552 12.2986 4.79846 12.5928 5.05067C12.605 5.06292 12.6301 5.07575 12.6423 5.10025C12.6546 5.1125 12.6797 5.12533 12.6919 5.14983C12.7292 5.17492 12.7538 5.21167 12.7911 5.23675C12.8284 5.26183 12.8529 5.29858 12.8903 5.32367C12.9153 5.361 12.9521 5.3855 12.9772 5.42283C13.3086 5.76314 13.5853 6.15277 13.7973 6.57783C13.8096 6.59008 13.8096 6.60292 13.8224 6.62742C13.8347 6.63967 13.8347 6.6525 13.8475 6.677C13.8603 6.7015 13.8726 6.73883 13.8971 6.76392C13.9093 6.789 13.9222 6.82575 13.9344 6.85083C13.9467 6.87592 13.9595 6.91267 13.9718 6.93775C14.0213 7.04975 14.0587 7.16117 14.096 7.27317C14.1578 7.447 14.1952 7.59633 14.2325 7.72058C14.2394 7.74517 14.254 7.76689 14.2741 7.78254C14.2943 7.79819 14.319 7.80694 14.3445 7.8075C14.4063 7.8075 14.4437 7.75792 14.4437 7.6955C14.4314 7.54617 14.4314 7.38517 14.4186 7.1985H14.4198Z" fill="black" fill-opacity="0.85"/>
</svg>
