<svg width="16" height="16" viewBox="0 0 16 16" fill="none" xmlns="http://www.w3.org/2000/svg">
<path d="M14.1094 13.9406L12.6172 12.4359C13.5922 10.9438 13.1734 8.94375 11.6813 7.96875C10.1891 6.99375 8.18906 7.4125 7.21406 8.90469C6.23906 10.3969 6.65781 12.3969 8.15 13.3719C8.67656 13.7156 9.29219 13.8984 9.92188 13.8969C10.5562 13.8953 11.1766 13.7063 11.7031 13.3531L13.1969 14.8562C13.3828 15.0422 13.6859 15.0422 13.8719 14.8562L14.1109 14.6156C14.2969 14.4266 14.2969 14.125 14.1109 13.9359L14.1094 13.9406ZM11.6656 11.4812C11.4406 11.9563 11.0344 12.3203 10.5375 12.4922C10.3391 12.5703 10.1281 12.6078 9.91563 12.6C8.82813 12.6156 7.93594 11.7469 7.92031 10.6594C7.90469 9.57188 8.775 8.67969 9.8625 8.66406C10.95 8.64844 11.8422 9.51875 11.8562 10.6047C11.8609 10.9094 11.7938 11.2094 11.6625 11.4828L11.6656 11.4812ZM5.7 11.2531H4.11875C3.84531 11.2422 3.63125 11.0109 3.64219 10.7375C3.65312 10.4781 3.85937 10.2719 4.11875 10.2609H5.675C5.71406 9.80469 5.82812 9.35781 6.00937 8.93906H4.12031C3.84687 8.92813 3.63281 8.69688 3.64375 8.42344C3.65469 8.16406 3.86094 7.95781 4.12031 7.94688H6.60938C7.09531 7.34531 7.73594 6.8875 8.4625 6.625H4.12031C3.84687 6.625 3.62344 6.40313 3.625 6.12813C3.625 5.85469 3.84687 5.63281 4.12031 5.63281H11.7063C11.9797 5.63281 12.2031 5.85469 12.2016 6.12969C12.2016 6.40313 11.9797 6.625 11.7063 6.625H11.3344C12.6766 7.11406 13.6859 8.24375 14.0203 9.63438V2.50469C14.0219 1.67813 13.3531 1.00469 12.5266 1H3.29688C2.47031 1.00625 1.80469 1.67656 1.80469 2.50312V13.2375C1.80469 14.0641 2.47187 14.7359 3.29844 14.7406H8.71094C7.1125 14.2672 5.93594 12.9047 5.7 11.2531ZM4.11875 3.31875H11.7063C11.9797 3.32969 12.1938 3.56094 12.1828 3.83437C12.1719 4.09375 11.9656 4.3 11.7063 4.31094H4.11875C3.84531 4.3 3.63125 4.06875 3.64219 3.79531C3.65312 3.53594 3.86094 3.32969 4.11875 3.31875Z" fill="black" fill-opacity="0.85"/>
</svg>
