<svg width="14" height="14" viewBox="0 0 14 14" fill="none" xmlns="http://www.w3.org/2000/svg">
<path d="M13.4198 6.1985C13.3947 5.96225 13.3579 5.68925 13.2832 5.39117C13.2086 5.09308 13.0843 4.76992 12.9228 4.42225C12.7489 4.08683 12.5378 3.72633 12.2519 3.39092C12.1399 3.25442 12.0157 3.13017 11.8914 2.99367C12.0903 2.21083 11.6552 1.52775 11.6552 1.52775C10.8974 1.47817 10.4255 1.764 10.2517 1.88825C10.2266 1.876 10.1898 1.86317 10.1648 1.85092C10.0405 1.80133 9.904 1.75175 9.7675 1.70158C9.631 1.66425 9.49392 1.61467 9.35742 1.58958C9.22092 1.55225 9.07158 1.52775 8.92283 1.50267C8.89775 1.50267 8.87325 1.49042 8.84817 1.49042C8.525 0.446833 7.58117 0 7.58117 0C6.50025 0.695917 6.28908 1.6275 6.28908 1.6275C6.28908 1.6275 6.28908 1.65258 6.27683 1.67708C6.215 1.68933 6.16483 1.71442 6.103 1.72667C6.02833 1.75175 5.94142 1.77625 5.86675 1.81358C5.79208 1.85092 5.70517 1.87542 5.6305 1.91275C5.46892 1.98742 5.32017 2.06208 5.15858 2.149C5.0091 2.23264 4.86405 2.32396 4.724 2.42258C4.69892 2.41033 4.68667 2.3975 4.68667 2.3975C3.233 1.83867 1.9415 2.5095 1.9415 2.5095C1.8295 4.06233 2.52542 5.03125 2.66192 5.20508C2.62458 5.30425 2.60008 5.39117 2.56275 5.49092C2.45203 5.84348 2.37297 6.20522 2.3265 6.57183C2.31425 6.62142 2.31425 6.68383 2.30142 6.73342C0.95975 7.392 0.5625 8.75817 0.5625 8.75817C1.68075 10.0503 2.99733 10.1249 2.99733 10.1249C3.16183 10.4233 3.35317 10.706 3.569 10.9696C3.65592 11.0816 3.75508 11.1807 3.85483 11.2928C3.44475 12.4606 3.91667 13.4418 3.91667 13.4418C5.17142 13.4913 5.991 12.8952 6.16483 12.7587L6.53758 12.8707C6.92258 12.9698 7.32042 13.0323 7.70542 13.0445H8.21467C8.79858 13.8892 9.84217 14.0012 9.84217 14.0012C10.5748 13.2183 10.625 12.4606 10.625 12.2867V12.2121C10.7743 12.1001 10.9231 11.9887 11.0724 11.8644C11.3705 11.6037 11.619 11.2928 11.8424 10.9702C11.8675 10.9451 11.8798 10.9083 11.9043 10.8832C12.7367 10.9328 13.3206 10.3617 13.3206 10.3617C13.1841 9.492 12.6871 9.06967 12.5879 8.995L12.5757 8.98275L12.5634 8.9705L12.5512 8.95825C12.5512 8.90867 12.5634 8.85908 12.5634 8.79667C12.5757 8.6975 12.5757 8.61058 12.5757 8.51083V8.15033C12.5757 8.12525 12.5757 8.10075 12.5634 8.07567L12.5383 7.92633C12.5261 7.82717 12.501 7.74025 12.4888 7.6405C12.4022 7.27309 12.2597 6.92113 12.0664 6.59692C11.8719 6.28301 11.6334 5.99857 11.3583 5.75225C11.0916 5.51653 10.7899 5.32367 10.464 5.18058C10.1541 5.03645 9.82263 4.94403 9.48283 4.907C9.32125 4.88192 9.14742 4.88192 8.98583 4.88192H8.73733C8.65042 4.89417 8.5635 4.907 8.48883 4.91925C8.15342 4.98108 7.84308 5.10533 7.5695 5.26692C7.29592 5.4285 7.06025 5.63967 6.86133 5.87533C6.66855 6.09946 6.51706 6.35602 6.41392 6.63308C6.31475 6.89383 6.25233 7.17967 6.24008 7.44042V7.7385C6.24008 7.77583 6.24008 7.80033 6.25233 7.83767C6.29096 8.22024 6.43269 8.58515 6.66242 8.8935C6.81175 9.09242 6.97275 9.24117 7.15942 9.36542C7.3455 9.48967 7.53217 9.57658 7.73108 9.639C7.93 9.70142 8.11608 9.72592 8.28992 9.71367H8.55008C8.57517 9.71367 8.59967 9.70142 8.61192 9.70142C8.637 9.70142 8.64925 9.68917 8.67375 9.68917C8.71108 9.67692 8.76067 9.66408 8.798 9.65183C8.87267 9.62675 8.94733 9.59 9.02142 9.56492C9.09608 9.52758 9.15792 9.49025 9.2075 9.45292C9.21975 9.44067 9.24483 9.42783 9.25708 9.41558C9.27199 9.40432 9.28449 9.39018 9.29385 9.37401C9.3032 9.35783 9.30923 9.33995 9.31157 9.32141C9.3139 9.30288 9.31251 9.28406 9.30746 9.26607C9.30241 9.24808 9.29381 9.23128 9.28217 9.21667C9.25811 9.19308 9.22771 9.17699 9.19467 9.17036C9.16163 9.16374 9.12738 9.16685 9.09608 9.17933C9.08383 9.19158 9.071 9.19158 9.0465 9.20442C8.99493 9.23057 8.94077 9.2513 8.88492 9.26625C8.82308 9.2785 8.76067 9.30358 8.69883 9.31583C8.6615 9.31583 8.637 9.32808 8.59967 9.32808H8.38908C8.38908 9.32808 8.37683 9.32808 8.38908 9.32808H8.33892C8.32608 9.32808 8.30158 9.32808 8.28933 9.31583C8.15283 9.29075 8.0035 9.254 7.867 9.19158C7.7305 9.12917 7.59342 9.04225 7.482 8.93083C7.35775 8.81883 7.25858 8.69458 7.17167 8.54583C7.08475 8.39708 7.03517 8.2355 7.01008 8.07392C6.99783 7.987 6.985 7.90008 6.99783 7.81317V7.7385C6.99783 7.75075 6.99783 7.7385 6.99783 7.7385V7.67608C6.99783 7.6265 7.01008 7.58917 7.02292 7.53958C7.08851 7.15554 7.27584 6.80277 7.55725 6.53333C7.63192 6.45867 7.70658 6.39683 7.7935 6.34725C7.88042 6.28542 7.96733 6.23525 8.05425 6.19792C8.14117 6.16058 8.24033 6.12325 8.34008 6.09875C8.43925 6.07367 8.539 6.04917 8.63817 6.04917C8.68775 6.04917 8.73733 6.03692 8.7875 6.03692H8.88667C8.89892 6.03692 8.88667 6.03692 8.88667 6.03692H8.93625C9.26768 6.06459 9.58952 6.162 9.88067 6.32275C10.2779 6.54617 10.6133 6.88158 10.8123 7.29167C10.9114 7.49058 10.9861 7.714 11.0234 7.95025C11.0357 8.01208 11.0357 8.06225 11.0485 8.12408V8.44725C11.0485 8.50908 11.0363 8.5715 11.0363 8.63333C11.024 8.69517 11.024 8.75758 11.0112 8.81942L10.9738 9.0055C10.9616 9.06733 10.8992 9.24175 10.8618 9.366C10.8245 9.49025 10.6507 9.82567 10.5013 10.0246C10.1996 10.4374 9.79767 10.7667 9.3335 10.9812C9.09725 11.0804 8.86158 11.1673 8.61308 11.2047C8.49039 11.2295 8.36552 11.242 8.24033 11.242H8.05425C8.0665 11.242 8.05425 11.242 8.05425 11.242H8.042C7.98017 11.242 7.9055 11.242 7.84308 11.2297C7.5695 11.2047 7.30875 11.1551 7.048 11.0804C6.78725 11.0057 6.53875 10.9066 6.3025 10.7823C5.8292 10.5276 5.41122 10.1814 5.07283 9.76383C4.91125 9.55267 4.7625 9.32925 4.63825 9.093C4.514 8.85675 4.42708 8.60825 4.35242 8.36033C4.27978 8.10969 4.23805 7.8511 4.22817 7.59033V7.20533C4.22817 7.08108 4.24042 6.94458 4.2655 6.80808C4.27775 6.67158 4.30283 6.54733 4.32733 6.41083C4.35183 6.27433 4.38917 6.15008 4.4265 6.01358C4.46383 5.87708 4.58808 5.50433 4.70008 5.26808C4.9235 4.79617 5.20933 4.37383 5.54475 4.03842C5.63167 3.9515 5.71858 3.87683 5.81833 3.80217C5.85567 3.76483 5.94258 3.69017 6.04175 3.62833C6.14092 3.5665 6.24067 3.50408 6.35208 3.4545C6.40167 3.42942 6.45125 3.40492 6.51367 3.37983C6.53875 3.36758 6.56325 3.35475 6.60058 3.3425C6.62567 3.33025 6.65017 3.31742 6.6875 3.30517C6.7995 3.25558 6.91092 3.21825 7.02292 3.18092C7.048 3.16867 7.08475 3.16867 7.10983 3.15583C7.13492 3.143 7.17167 3.14358 7.19675 3.13075C7.22183 3.11792 7.30875 3.10567 7.37058 3.08117C7.39567 3.06892 7.43242 3.06892 7.4575 3.05608C7.48258 3.05608 7.51933 3.04383 7.54442 3.04383C7.5695 3.04383 7.60625 3.03158 7.63133 3.03158L7.7305 3.0065C7.75558 3.0065 7.79233 2.99425 7.81742 2.99425C7.85475 2.99425 7.87925 2.982 7.91658 2.982C7.94167 2.982 7.99125 2.96975 8.01575 2.96975C8.04025 2.96975 8.05308 2.96975 8.07758 2.9575H8.1645C8.20183 2.9575 8.22633 2.9575 8.26367 2.94525H8.31325C8.31325 2.94525 8.3255 2.94525 8.31325 2.94525H8.77292C8.99633 2.9575 9.22033 2.98258 9.4315 3.01992C9.84655 3.09207 10.2484 3.22598 10.6238 3.41717C10.9729 3.58552 11.2986 3.79846 11.5928 4.05067C11.605 4.06292 11.6301 4.07575 11.6423 4.10025C11.6546 4.1125 11.6797 4.12533 11.6919 4.14983C11.7292 4.17492 11.7538 4.21167 11.7911 4.23675C11.8284 4.26183 11.8529 4.29858 11.8903 4.32367C11.9153 4.361 11.9521 4.3855 11.9772 4.42283C12.3086 4.76314 12.5853 5.15277 12.7973 5.57783C12.8096 5.59008 12.8096 5.60292 12.8224 5.62742C12.8347 5.63967 12.8347 5.6525 12.8475 5.677C12.8603 5.7015 12.8726 5.73883 12.8971 5.76392C12.9093 5.789 12.9222 5.82575 12.9344 5.85083C12.9467 5.87592 12.9595 5.91267 12.9718 5.93775C13.0213 6.04975 13.0587 6.16117 13.096 6.27317C13.1578 6.447 13.1952 6.59633 13.2325 6.72058C13.2394 6.74517 13.254 6.76689 13.2741 6.78254C13.2943 6.79819 13.319 6.80694 13.3445 6.8075C13.4063 6.8075 13.4437 6.75792 13.4437 6.6955C13.4314 6.54617 13.4314 6.38517 13.4186 6.1985H13.4198Z" fill="black" fill-opacity="0.85"/>
</svg>
