<svg width="14" height="14" viewBox="0 0 14 14" fill="none" xmlns="http://www.w3.org/2000/svg">
<path d="M7 14C10.866 14 14 10.866 14 7C14 3.13401 10.866 0 7 0C3.13401 0 0 3.13401 0 7C0 7.37413 0.303291 7.67742 0.677419 7.67742C1.05155 7.67742 1.35484 7.37413 1.35484 7C1.35484 3.88226 3.88226 1.35484 7 1.35484C10.1177 1.35484 12.6452 3.88226 12.6452 7C12.6452 10.1177 10.1177 12.6452 7 12.6452C6.62587 12.6452 6.32258 12.9485 6.32258 13.3226C6.32258 13.6967 6.62587 14 7 14Z" fill="url(#paint0_linear_4530_57924)"/>
<defs>
<linearGradient id="paint0_linear_4530_57924" x1="12" y1="14.5" x2="-2" y2="8.5" gradientUnits="userSpaceOnUse">
<stop offset="0.135417" stop-color="#2673DD"/>
<stop offset="0.992136" stop-color="#2673DD" stop-opacity="0.01"/>
</linearGradient>
</defs>
</svg>
